<svg width="217" height="117" viewBox="0 0 217 117" fill="none" xmlns="http://www.w3.org/2000/svg">
<path d="M211.942 57.0364C211.942 68.2754 222.398 80.5946 213.244 89.6699C203.799 99.0328 188.148 108.359 171.825 113.776C156.002 119.027 134.302 113.456 114.707 113.456C95.1133 113.456 72.4576 119.974 56.6352 114.723C40.3115 109.306 22.2064 100.164 12.7621 90.8011C3.60789 81.7257 0 68.2752 0 57.0363C0 45.7972 11.4372 34.945 20.5916 25.8696C30.0359 16.5066 45.4584 9.86881 61.7821 4.45171C77.6043 -0.799036 95.1131 0.0596709 114.707 0.0596709C134.302 0.0596709 151.858 -0.846551 167.681 4.40419C184.005 9.82129 200.765 16.0466 210.21 25.4096C219.364 34.4851 211.942 45.7973 211.942 57.0364Z" fill="#69DBFF"/>
</svg>
