<svg width="40" height="36" viewBox="0 0 40 36" fill="none" xmlns="http://www.w3.org/2000/svg">
<path d="M39.644 8.86202C39.46 8.59616 39.2144 8.37886 38.928 8.22873C38.6417 8.07861 38.3233 8.00013 38 8.00002H10.666L8.35799 2.46002C8.05626 1.72984 7.54404 1.10598 6.88655 0.667887C6.22906 0.229799 5.45606 -0.00269121 4.666 2.35055e-05H0V4.00002H4.666L14.154 26.77C14.306 27.1343 14.5623 27.4455 14.8908 27.6644C15.2193 27.8833 15.6053 28 16 28H32C32.834 28 33.58 27.482 33.874 26.704L39.874 10.704C39.9874 10.4013 40.0257 10.0755 39.9856 9.75472C39.9456 9.43391 39.8283 9.1276 39.644 8.86202ZM30.614 24H17.334L12.334 12H35.114L30.614 24Z" fill="#008CEB"/>
<path d="M16.9998 36C18.6566 36 19.9998 34.6569 19.9998 33C19.9998 31.3431 18.6566 30 16.9998 30C15.3429 30 13.9998 31.3431 13.9998 33C13.9998 34.6569 15.3429 36 16.9998 36Z" fill="#008CEB"/>
<path d="M30.9998 36C32.6566 36 33.9998 34.6569 33.9998 33C33.9998 31.3431 32.6566 30 30.9998 30C29.3429 30 27.9998 31.3431 27.9998 33C27.9998 34.6569 29.3429 36 30.9998 36Z" fill="#008CEB"/>
</svg>
