<svg width="65" height="49" viewBox="0 0 65 49" fill="none" xmlns="http://www.w3.org/2000/svg">
<path d="M37.3408 0.5C43.9791 0.5 49.5885 4.05786 53.8506 8.33789L54.2588 8.75391C58.553 13.2128 61.6102 18.543 63.1572 22.2412C63.6279 23.3754 63.6277 24.7261 63.1572 25.8604C61.6103 29.5586 58.5532 34.8896 54.2588 39.3486C49.95 43.8246 44.2046 47.6025 37.3408 47.6025C30.6919 47.6025 25.0926 44.0448 20.8311 39.7646L20.4229 39.3486C18.6455 37.4994 17.0744 35.4991 15.7324 33.5234L15.4443 33.0986L15.0273 33.3984L5.06055 40.5469C3.90337 41.3783 2.42972 41.1735 1.43848 39.9658C0.424752 38.7305 0.201523 36.7769 0.916992 35.2148L6.0166 24.2695L6.11426 24.0586L6.0166 23.8477L0.927734 12.8984C0.203747 11.3398 0.433889 9.38641 1.44922 8.14941C2.43942 6.94305 3.90215 6.73637 5.07129 7.56836V7.56934L15.0381 14.7178L15.4551 15.0166L15.7432 14.5928C17.0853 12.6168 18.6569 10.6161 20.4346 8.7666L20.7412 8.44824L20.7324 8.4375C25.0064 4.1132 30.6512 0.500059 37.3408 0.5Z" fill="#CFE2FF" stroke="#52867E"/>
</svg>
