<svg width="187" height="118" viewBox="0 0 187 118" fill="none" xmlns="http://www.w3.org/2000/svg">
<path d="M99.6879 5.36221C100.94 5.36087 102.013 5.42986 102.948 5.53801C92.6194 13.0779 98.2568 28.7266 126.026 21.9613C135.61 19.5586 144.675 9.24043 155.814 14.1645C146.711 7.47438 133.562 15.9683 125.18 18.1925C123.253 18.6409 120.358 18.9872 118.425 19.1272C99.5957 20.5205 104.685 9.20433 112.361 7.40674L120.033 5.61007L113.09 2.74149C80.2416 -10.8294 57.8082 31.1831 24.3987 16.119C48.7869 33.8837 78.1157 5.38039 99.6879 5.36221Z" fill="white"/>
<path d="M1.01858 55.7866C0.52791 55.2533 0.282577 54.5706 0.282577 53.7386C0.858577 53.7386 1.39191 53.568 1.88258 53.2266C2.39458 52.8853 2.76791 52.3626 3.00258 51.6586L8.25058 36.1706C7.39724 35.8933 6.31991 35.7546 5.01858 35.7546C5.01858 34.8373 5.27458 34.0693 5.78658 33.4506H14.5546L20.5066 51.5626C20.7412 52.2666 21.1146 52.8106 21.6266 53.1946C22.1386 53.5573 22.6719 53.7386 23.2266 53.7386C23.2266 54.5706 22.9812 55.2533 22.4906 55.7866H13.8186C13.3279 55.2533 13.0826 54.5706 13.0826 53.7386C13.6372 53.7386 14.0746 53.6213 14.3946 53.3866C14.7359 53.1306 14.9066 52.736 14.9066 52.2026C14.9066 52.0106 14.8852 51.7866 14.8426 51.5306C14.8212 51.2746 14.7679 50.9973 14.6826 50.6986L14.4906 50.0266H7.32258L7.13058 50.6986C7.04524 50.976 6.97058 51.232 6.90658 51.4666C6.86391 51.7013 6.84258 51.9146 6.84258 52.1066C6.84258 52.6826 7.02391 53.0986 7.38658 53.3546C7.74924 53.6106 8.25058 53.7386 8.89058 53.7386C8.89058 54.5706 8.64524 55.2533 8.15458 55.7866H1.01858ZM8.02658 47.5306H13.7866L11.5146 39.5946C11.3226 38.9546 11.0772 38.4106 10.7786 37.9626L8.02658 47.5306ZM38.2038 62.7626C37.4145 62.7626 36.7532 62.6453 36.2198 62.4106C35.6865 62.1973 35.4198 61.76 35.4198 61.0986V55.0186C35.0145 55.424 34.5238 55.7226 33.9478 55.9146C33.3718 56.1066 32.7425 56.2026 32.0598 56.2026C30.8865 56.2026 29.7878 55.9146 28.7638 55.3386C27.7398 54.7413 26.9078 53.8453 26.2678 52.6506C25.6492 51.456 25.3398 49.952 25.3398 48.1386C25.3398 46.0906 25.7238 44.352 26.4918 42.9226C27.2598 41.4933 28.2945 40.4053 29.5958 39.6586C30.8972 38.8906 32.3372 38.5066 33.9158 38.5066C34.5558 38.5066 35.1958 38.5706 35.8358 38.6986C36.4758 38.8053 37.0945 38.9546 37.6918 39.1466C37.9265 39.104 38.1505 39.072 38.3638 39.0506C38.5772 39.008 38.8118 38.9866 39.0678 38.9866H41.0838C41.3398 39.2213 41.5318 39.5093 41.6598 39.8506C41.7878 40.192 41.8518 40.544 41.8518 40.9066C41.2118 40.9066 40.8278 41.0453 40.6998 41.3226C40.5718 41.6 40.5078 42.0586 40.5078 42.6986V59.0826C40.5078 59.5946 40.6465 59.9786 40.9238 60.2346C41.2012 60.512 41.5852 60.704 42.0758 60.8106V61.6746C41.6918 62.016 41.2012 62.2826 40.6038 62.4746C40.0065 62.6666 39.2065 62.7626 38.2038 62.7626ZM34.2678 53.4186C34.5025 53.4186 34.7158 53.3973 34.9078 53.3546C35.0998 53.2906 35.2705 53.216 35.4198 53.1306V41.2266C35.0145 40.9493 34.5238 40.8106 33.9478 40.8106C33.3718 40.8106 32.8492 41.0026 32.3798 41.3866C31.9105 41.7706 31.5372 42.4213 31.2598 43.3386C30.9825 44.2346 30.8438 45.472 30.8438 47.0506C30.8438 49.248 31.1745 50.8586 31.8358 51.8826C32.4972 52.9066 33.3078 53.4186 34.2678 53.4186ZM51.7208 56.0106C50.2275 56.0106 49.0648 55.552 48.2328 54.6346C47.4008 53.7173 46.9848 52.48 46.9848 50.9226V42.1226C46.9848 41.76 46.8462 41.504 46.5688 41.3546C46.2915 41.2053 45.9075 41.1306 45.4168 41.1306V39.7226C45.6942 39.488 46.2702 39.2426 47.1448 38.9866C48.0408 38.7093 49.0435 38.5706 50.1528 38.5706C50.9848 38.5706 51.5288 38.6666 51.7848 38.8586C52.0622 39.0506 52.2008 39.52 52.2008 40.2666V51.0186C52.2008 51.6586 52.3075 52.1493 52.5208 52.4906C52.7342 52.832 53.1075 53.0026 53.6408 53.0026C54.0888 53.0026 54.5155 52.864 54.9208 52.5866C55.3475 52.3093 55.6995 51.9893 55.9768 51.6266V42.1226C55.9768 41.76 55.8168 41.504 55.4968 41.3546C55.1768 41.2053 54.7395 41.1306 54.1848 41.1306V39.7226C54.4835 39.488 55.0702 39.2426 55.9448 38.9866C56.8195 38.7093 57.8542 38.5706 59.0488 38.5706C59.8808 38.5706 60.4462 38.6666 60.7448 38.8586C61.0435 39.0506 61.1928 39.52 61.1928 40.2666V52.0426C61.1928 52.5546 61.3208 52.9813 61.5768 53.3226C61.8542 53.664 62.2382 53.856 62.7288 53.8986V54.7946C62.3875 55.2 61.8435 55.5093 61.0968 55.7226C60.3715 55.9146 59.6675 56.0106 58.9848 56.0106C58.2808 56.0106 57.6622 55.8293 57.1288 55.4666C56.6168 55.0826 56.2755 54.5386 56.1048 53.8346C55.0595 55.2853 53.5982 56.0106 51.7208 56.0106ZM71.4413 56.0106C69.8413 56.0106 68.54 55.5733 67.5373 54.6986C66.556 53.8026 66.0653 52.6613 66.0653 51.2746C66.0653 49.888 66.5133 48.768 67.4093 47.9146C68.3267 47.0613 69.7347 46.6346 71.6333 46.6346C72.252 46.6346 72.9027 46.6986 73.5853 46.8266C74.268 46.9333 74.8227 47.104 75.2493 47.3386V43.0826C75.2493 42.1866 75.0147 41.568 74.5453 41.2266C74.0973 40.864 73.5427 40.6826 72.8813 40.6826C72.1773 40.6826 71.6013 40.8533 71.1533 41.1946C71.58 41.344 71.8893 41.5786 72.0813 41.8986C72.2733 42.1973 72.3693 42.528 72.3693 42.8906C72.3693 43.5946 72.1133 44.16 71.6013 44.5866C71.1107 44.992 70.5027 45.1946 69.7773 45.1946C68.9667 45.1946 68.316 44.96 67.8253 44.4906C67.3347 44 67.0893 43.392 67.0893 42.6666C67.0893 41.9413 67.3347 41.2586 67.8253 40.6186C68.316 39.9573 69.0733 39.4133 70.0973 38.9866C71.1427 38.56 72.4867 38.3466 74.1293 38.3466C78.4173 38.3466 80.5613 40.0426 80.5613 43.4346V51.9146C80.5613 52.9386 81.052 53.5573 82.0333 53.7706V54.7946C81.756 55.2 81.2867 55.5093 80.6253 55.7226C79.964 55.9146 79.324 56.0106 78.7053 56.0106C77.2547 56.0106 76.2307 55.5093 75.6333 54.5066C75.2067 54.8906 74.6413 55.2426 73.9373 55.5626C73.2333 55.8613 72.4013 56.0106 71.4413 56.0106ZM73.5213 53.4186C73.82 53.4186 74.1293 53.376 74.4493 53.2906C74.7693 53.184 75.036 53.056 75.2493 52.9066V49.8026C75.036 49.6533 74.7587 49.5253 74.4173 49.4186C74.0973 49.312 73.7773 49.2586 73.4573 49.2586C72.9027 49.2586 72.4227 49.44 72.0173 49.8026C71.612 50.144 71.4093 50.688 71.4093 51.4346C71.4093 52.0106 71.6013 52.4906 71.9853 52.8746C72.3693 53.2373 72.8813 53.4186 73.5213 53.4186ZM86.3248 55.7866C85.8555 55.2533 85.6208 54.5706 85.6208 53.7386C86.3248 53.7386 86.8155 53.6213 87.0928 53.3866C87.3915 53.152 87.5408 52.736 87.5408 52.1386V37.0986C87.5408 36.5013 87.3915 36.0853 87.0928 35.8506C86.8155 35.5946 86.3248 35.4666 85.6208 35.4666C85.6208 34.656 85.8555 33.984 86.3248 33.4506H94.1328C94.3462 33.7066 94.5168 34.016 94.6448 34.3786C94.7728 34.7413 94.8368 35.104 94.8368 35.4666C94.1328 35.4666 93.6315 35.5946 93.3328 35.8506C93.0555 36.0853 92.9168 36.5013 92.9168 37.0986V43.0826H99.8928V37.0986C99.8928 36.5013 99.7435 36.0853 99.4448 35.8506C99.1462 35.5946 98.6555 35.4666 97.9728 35.4666C97.9728 34.656 98.2075 33.984 98.6768 33.4506H106.517C106.986 33.984 107.221 34.656 107.221 35.4666C106.538 35.4666 106.037 35.5946 105.717 35.8506C105.418 36.0853 105.269 36.5013 105.269 37.0986V52.1386C105.269 52.736 105.418 53.152 105.717 53.3866C106.037 53.6213 106.538 53.7386 107.221 53.7386C107.221 54.5706 106.986 55.2533 106.517 55.7866H98.6768C98.2075 55.2533 97.9728 54.5706 97.9728 53.7386C98.6555 53.7386 99.1462 53.6213 99.4448 53.3866C99.7435 53.152 99.8928 52.736 99.8928 52.1386V45.7706H92.9168V52.1386C92.9168 52.736 93.0555 53.152 93.3328 53.3866C93.6315 53.6213 94.1328 53.7386 94.8368 53.7386C94.8368 54.1226 94.7728 54.496 94.6448 54.8586C94.5168 55.2213 94.3462 55.5306 94.1328 55.7866H86.3248ZM116.015 56.0106C114.415 56.0106 113.114 55.5733 112.111 54.6986C111.13 53.8026 110.639 52.6613 110.639 51.2746C110.639 49.888 111.087 48.768 111.983 47.9146C112.9 47.0613 114.308 46.6346 116.207 46.6346C116.826 46.6346 117.476 46.6986 118.159 46.8266C118.842 46.9333 119.396 47.104 119.823 47.3386V43.0826C119.823 42.1866 119.588 41.568 119.119 41.2266C118.671 40.864 118.116 40.6826 117.455 40.6826C116.751 40.6826 116.175 40.8533 115.727 41.1946C116.154 41.344 116.463 41.5786 116.655 41.8986C116.847 42.1973 116.943 42.528 116.943 42.8906C116.943 43.5946 116.687 44.16 116.175 44.5866C115.684 44.992 115.076 45.1946 114.351 45.1946C113.54 45.1946 112.89 44.96 112.399 44.4906C111.908 44 111.663 43.392 111.663 42.6666C111.663 41.9413 111.908 41.2586 112.399 40.6186C112.89 39.9573 113.647 39.4133 114.671 38.9866C115.716 38.56 117.06 38.3466 118.703 38.3466C122.991 38.3466 125.135 40.0426 125.135 43.4346V51.9146C125.135 52.9386 125.626 53.5573 126.607 53.7706V54.7946C126.33 55.2 125.86 55.5093 125.199 55.7226C124.538 55.9146 123.898 56.0106 123.279 56.0106C121.828 56.0106 120.804 55.5093 120.207 54.5066C119.78 54.8906 119.215 55.2426 118.511 55.5626C117.807 55.8613 116.975 56.0106 116.015 56.0106ZM118.095 53.4186C118.394 53.4186 118.703 53.376 119.023 53.2906C119.343 53.184 119.61 53.056 119.823 52.9066V49.8026C119.61 49.6533 119.332 49.5253 118.991 49.4186C118.671 49.312 118.351 49.2586 118.031 49.2586C117.476 49.2586 116.996 49.44 116.591 49.8026C116.186 50.144 115.983 50.688 115.983 51.4346C115.983 52.0106 116.175 52.4906 116.559 52.8746C116.943 53.2373 117.455 53.4186 118.095 53.4186ZM135.253 56.0106L130.197 42.3786C129.983 41.8026 129.759 41.3866 129.525 41.1306C129.29 40.8533 128.895 40.7146 128.341 40.7146C128.341 40.3733 128.394 40.032 128.501 39.6906C128.607 39.328 128.778 39.0293 129.013 38.7946H136.309C136.543 39.0293 136.725 39.328 136.853 39.6906C136.981 40.032 137.045 40.3733 137.045 40.7146C136.618 40.7146 136.255 40.832 135.957 41.0666C135.679 41.3013 135.541 41.664 135.541 42.1546C135.541 42.24 135.551 42.3466 135.573 42.4746C135.615 42.6026 135.647 42.72 135.669 42.8266L136.981 47.1786L138.453 52.7786L139.925 47.1786L141.173 42.8266C141.215 42.6986 141.247 42.5706 141.269 42.4426C141.29 42.2933 141.301 42.1653 141.301 42.0586C141.301 41.6106 141.151 41.28 140.853 41.0666C140.554 40.832 140.149 40.7146 139.637 40.7146C139.637 40.3733 139.679 40.032 139.765 39.6906C139.85 39.328 140.01 39.0293 140.245 38.7946H146.453C146.687 39.0293 146.847 39.328 146.933 39.6906C147.039 40.032 147.093 40.3733 147.093 40.7146C146.538 40.7146 146.122 40.8533 145.845 41.1306C145.589 41.3866 145.365 41.8026 145.173 42.3786L141.845 52.5866C141.503 53.76 141.109 54.624 140.661 55.1786C140.234 55.7333 139.541 56.0106 138.581 56.0106H135.253ZM156.933 56.0746C154.544 56.0746 152.634 55.3173 151.205 53.8026C149.797 52.288 149.093 50.176 149.093 47.4666C149.093 45.6106 149.445 44.0106 150.149 42.6666C150.853 41.3013 151.802 40.256 152.997 39.5306C154.213 38.8053 155.589 38.4426 157.125 38.4426C159.045 38.4426 160.581 39.008 161.733 40.1386C162.906 41.248 163.493 42.816 163.493 44.8426C163.493 45.6533 163.354 46.368 163.077 46.9866C162.821 47.584 162.277 47.8826 161.445 47.8826H154.533C154.597 49.568 154.981 50.7626 155.685 51.4666C156.41 52.1706 157.349 52.5226 158.501 52.5226C159.226 52.5226 159.898 52.416 160.517 52.2026C161.136 51.968 161.712 51.648 162.245 51.2426C162.437 51.4133 162.586 51.68 162.693 52.0426C162.821 52.384 162.885 52.672 162.885 52.9066C162.885 53.248 162.64 53.6746 162.149 54.1866C161.68 54.6773 160.997 55.1146 160.101 55.4986C159.226 55.8826 158.17 56.0746 156.933 56.0746ZM154.533 45.4506H157.765C158.128 45.4506 158.352 45.312 158.437 45.0346C158.544 44.7573 158.597 44.416 158.597 44.0106C158.597 42.6453 158.426 41.7493 158.085 41.3226C157.765 40.8746 157.381 40.6506 156.933 40.6506C156.57 40.6506 156.208 40.7893 155.845 41.0666C155.482 41.344 155.184 41.8346 154.949 42.5386C154.714 43.2213 154.576 44.192 154.533 45.4506ZM168.134 55.7866C167.899 55.552 167.707 55.296 167.558 55.0186C167.43 54.7413 167.366 54.432 167.366 54.0906C168.006 54.0906 168.464 53.952 168.742 53.6746C169.019 53.3973 169.158 52.9493 169.158 52.3306V42.9866C169.158 42.432 168.998 42.0266 168.678 41.7706C168.379 41.5146 167.824 41.3866 167.014 41.3866V39.9466C167.504 39.6693 168.123 39.4133 168.87 39.1786C169.638 38.944 170.374 38.7626 171.078 38.6346C171.803 38.4853 172.358 38.4106 172.742 38.4106C173.19 38.4106 173.552 38.5493 173.83 38.8266C174.128 39.104 174.299 39.7013 174.342 40.6186C174.875 39.9573 175.547 39.424 176.358 39.0186C177.19 38.6133 178.15 38.4106 179.238 38.4106C180.731 38.4106 181.851 38.7946 182.598 39.5626C183.366 40.3093 183.75 41.5893 183.75 43.4026V52.1386C183.75 53.184 184.262 53.8026 185.286 53.9946L185.318 54.9226C185.104 55.136 184.763 55.328 184.294 55.4986C183.824 55.648 183.312 55.7653 182.758 55.8506C182.224 55.936 181.723 55.9786 181.254 55.9786C180.336 55.9786 179.654 55.808 179.206 55.4666C178.779 55.1253 178.566 54.5813 178.566 53.8346V43.8506C178.566 42.976 178.374 42.368 177.99 42.0266C177.606 41.6853 177.136 41.5146 176.582 41.5146C175.707 41.5146 174.971 41.8666 174.374 42.5706V52.3306C174.374 52.9493 174.502 53.3973 174.758 53.6746C175.035 53.952 175.494 54.0906 176.134 54.0906C176.134 54.7306 175.888 55.296 175.398 55.7866H168.134Z" fill="white"/>
<path d="M81.3883 101.29C78.6091 90.0299 73.8466 85.665 71.706 83.354C65.9627 88.3708 62.9311 94.9541 62.0333 97.1441H62.0205C62.0205 97.1441 64.2762 97.6908 65.8458 100.044C67.4155 102.397 66.9825 102.397 66.9825 102.397C66.9825 102.397 65.1559 100.472 62.9835 99.2802C65.1632 103.744 70.6235 112.819 80.3171 115.916C80.8092 112.981 81.5399 107.465 81.3883 101.29Z" fill="url(#paint0_linear_636_159)"/>
<path d="M81.3 78.0249C85.6688 84.7182 86.5092 93.7037 86.1189 101.543C87.2118 107.304 87.621 113.066 87.3696 117.406C89.4023 109.734 90.0243 102.579 89.9206 96.3893C87.0674 83.7786 81.3 78.0249 81.3 78.0249Z" fill="url(#paint1_linear_636_159)"/>
<path d="M102.307 103.291C101.517 110.107 100.105 115.438 100.103 115.44C104.188 108.258 106.43 100.839 107.647 94.4829C106.837 86.8658 104.78 81.3286 104.78 81.3286C105.323 89.2752 104.031 96.9628 102.307 103.291Z" fill="url(#paint2_linear_636_159)"/>
<path d="M114.024 89.1572C114.027 89.1405 114.03 89.1235 114.033 89.1068C114.007 89.0816 114.006 89.0999 114.024 89.1572Z" fill="url(#paint3_linear_636_159)"/>
<path d="M112.719 95.1047C114.513 101.198 114.972 105.691 114.972 105.691C115.497 102.71 116.083 98.2841 116.287 94.9398C115.216 91.7959 114.148 89.5522 114.024 89.1582C113.676 91.1483 113.231 93.1439 112.719 95.1047Z" fill="url(#paint4_linear_636_159)"/>
<path d="M94.5313 102.09C94.5726 110.433 93.4053 117.23 93.4053 117.23C96.4259 109.714 98.1843 103.069 99.0566 97.3144C98.0953 84.4871 93.5744 76.0347 93.5744 76.0347C95.8346 84.826 95.5649 94.2673 94.5313 102.09Z" fill="url(#paint5_linear_636_159)"/>
<path d="M123.415 83.9077C125.331 87.8856 126.429 92.6103 127.045 97.0903L130.92 84.4456L123.415 83.9077Z" fill="url(#paint6_linear_636_159)"/>
<path d="M118.58 88.3896C119.28 90.543 119.599 93.862 119.703 97.2259C121.904 103.154 122.332 109.636 122.332 109.636C123.187 104.149 123.011 99.0334 122.458 94.9587C120.428 90.9752 118.58 88.3896 118.58 88.3896Z" fill="url(#paint7_linear_636_159)"/>
<path d="M75.7148 102.151C77.7854 102.151 79.6217 100.905 80.7653 98.9848C78.9882 92.9609 76.6459 89.1772 74.6578 86.665C71.6939 87.2895 69.4363 90.4923 69.4363 94.3521C69.4363 98.6594 72.2473 102.151 75.7148 102.151Z" fill="url(#paint8_linear_636_159)"/>
<path opacity="0.37" d="M76.3505 100.378C77.976 100.378 79.4549 99.608 80.5696 98.3491C78.8184 92.696 76.5741 89.0868 74.6577 86.665C72.8274 87.051 71.2673 88.4201 70.3409 90.3199C70.1668 91.035 70.0718 91.7926 70.0718 92.5785C70.072 96.886 72.883 100.378 76.3505 100.378Z" fill="#666666"/>
<path d="M104.78 81.3284C102.702 79.9821 100.58 78.9814 98.4625 78.27C100.649 85.9557 100.712 99.0501 93.4053 117.23C94.7885 117.041 96.1905 116.745 97.5974 116.323C100.183 110.696 105.815 96.4777 104.78 81.3284Z" fill="url(#paint9_linear_636_159)"/>
<path d="M87.3697 117.406C88.6232 117.501 89.9144 117.519 91.2305 117.442C93.1281 111.401 97.8251 92.5684 93.5745 76.0351C91.1787 75.6936 88.8384 75.6788 86.626 75.9036C88.3846 80.9035 92.6702 97.399 87.3697 117.406Z" fill="url(#paint10_linear_636_159)"/>
<path d="M83.8676 116.926C85.394 110.621 89.3786 90.4022 81.3 78.0249C80.771 78.1812 80.2556 78.3492 79.7565 78.5286C78.3214 79.045 76.9838 79.6899 75.7366 80.4252C83.5496 91.5226 81.356 109.75 80.3067 115.981C81.426 116.357 82.6184 116.678 83.8676 116.926Z" fill="url(#paint11_linear_636_159)"/>
<path opacity="0.45" d="M81.3882 101.293C81.1761 100.433 80.9526 99.6104 80.7193 98.8286C80.3789 103.322 79.168 108.537 76.3921 114.24C77.6142 114.902 78.9238 115.467 80.3181 115.913C80.8095 112.976 81.5398 107.463 81.3882 101.293Z" fill="url(#paint12_linear_636_159)"/>
<path d="M123.415 83.9077C122.511 84.6847 121.034 86.1488 120.312 86.5075C121.619 89.1291 124.046 98.6369 122.333 109.636C123.776 110.622 125.71 111.778 127.648 113.144C127.701 112.597 128.865 95.2262 123.415 83.9077Z" fill="url(#paint13_linear_636_159)"/>
<path d="M114.033 89.1065C112.301 87.4033 110.622 86.1165 108.904 84.5356C108.447 91.9207 106.62 103.983 100.104 115.44C102.278 114.551 104.444 113.342 106.548 111.751C109.306 106.237 112.553 97.6157 114.033 89.1065Z" fill="url(#paint14_linear_636_159)"/>
<path d="M119.446 107.394C119.83 103.174 120.095 93.0512 118.58 88.3896C117.908 89.1766 116.812 90.4349 116.271 91.1686C116.657 93.7361 115.747 101.289 114.972 105.691C116.198 106.14 117.786 106.588 119.446 107.394Z" fill="url(#paint15_linear_636_159)"/>
<path d="M79.5096 93.723C79.5096 96.7236 77.5516 99.1556 75.1367 99.1556C72.7215 99.1556 70.7634 96.7236 70.7634 93.723C70.7634 90.723 72.7215 88.291 75.1367 88.291C77.5516 88.291 79.5096 90.723 79.5096 93.723Z" fill="white"/>
<path d="M79.184 93.3183C79.184 96.318 77.2256 98.75 74.8101 98.75C72.395 98.75 70.437 96.318 70.437 93.3183C70.437 90.318 72.395 87.8857 74.8101 87.8857C77.2256 87.8857 79.184 90.318 79.184 93.3183Z" fill="url(#paint16_linear_636_159)"/>
<path d="M77.0569 93.58C77.0569 95.0675 76.087 96.2729 74.8897 96.2729C73.6925 96.2729 72.7219 95.0678 72.7219 93.58C72.7219 92.0933 73.6923 90.8877 74.8897 90.8877C76.0868 90.8877 77.0569 92.0931 77.0569 93.58Z" fill="black"/>
<path d="M74.8 92.6342C74.8 93.1455 74.5054 93.5613 74.1419 93.5613C73.7784 93.5613 73.4841 93.1455 73.4841 92.6342C73.4841 92.123 73.7784 91.708 74.1419 91.708C74.5051 91.708 74.8 92.123 74.8 92.6342Z" fill="white"/>
<path opacity="0.45" d="M108.904 84.5356C108.447 91.9207 106.62 103.983 100.104 115.44C100.104 115.44 110.978 100.558 111.598 86.8915C110.702 86.1186 109.809 85.3675 108.904 84.5356Z" fill="url(#paint17_linear_636_159)"/>
<path opacity="0.45" d="M95.4522 111.833C102.741 97.4896 101.946 84.1589 101.62 79.5542C100.57 79.0502 99.5157 78.6244 98.4624 78.2705C100.432 85.1935 100.675 96.5069 95.3647 111.971C95.3942 111.925 95.4264 111.883 95.4522 111.833Z" fill="url(#paint18_linear_636_159)"/>
<path opacity="0.45" d="M114.972 105.691C115.561 105.907 116.234 106.123 116.958 106.378C117.913 99.2469 116.608 92.7738 116.3 91.3979C116.606 94.1591 115.725 101.413 114.972 105.691Z" fill="url(#paint19_linear_636_159)"/>
<path opacity="0.45" d="M122.333 109.636C122.822 109.97 123.355 110.316 123.917 110.678C126.756 94.3006 120.312 86.5073 120.312 86.5073C121.619 89.1289 124.046 98.6364 122.333 109.636Z" fill="url(#paint20_linear_636_159)"/>
<path opacity="0.45" d="M90.2437 75.7633C89.0092 75.7348 87.7992 75.784 86.626 75.9034C88.3844 80.9032 92.67 97.3988 87.3697 117.406C94.2838 96.7047 91.1889 79.6481 90.2437 75.7633Z" fill="url(#paint21_linear_636_159)"/>
<path d="M127.65 113.12C127.658 113.131 127.665 113.141 127.673 113.152C127.671 113.069 127.667 112.987 127.665 112.905C127.659 113.008 127.653 113.081 127.65 113.12Z" fill="url(#paint22_linear_636_159)"/>
<path d="M59.352 75.3967C61.6916 75.3967 63.5882 73.0407 63.5882 70.1344C63.5882 67.2281 61.6916 64.8721 59.352 64.8721C57.0124 64.8721 55.1157 67.2281 55.1157 70.1344C55.1157 73.0407 57.0124 75.3967 59.352 75.3967Z" fill="url(#paint23_linear_636_159)"/>
<path d="M52.4236 85.0937C54.0975 85.0937 55.4546 83.408 55.4546 81.3286C55.4546 79.2492 54.0975 77.5635 52.4236 77.5635C50.7496 77.5635 49.3926 79.2492 49.3926 81.3286C49.3926 83.408 50.7496 85.0937 52.4236 85.0937Z" fill="url(#paint24_linear_636_159)"/>
<path d="M59.3518 90.4993C59.3518 91.8362 58.4795 92.92 57.4033 92.92C56.3271 92.92 55.4546 91.8362 55.4546 90.4993C55.4546 89.1624 56.3271 88.0786 57.4033 88.0786C58.4795 88.0786 59.3518 89.1624 59.3518 90.4993Z" fill="url(#paint25_linear_636_159)"/>
<defs>
<linearGradient id="paint0_linear_636_159" x1="114.425" y1="103.889" x2="58.4134" y2="99.8694" gradientUnits="userSpaceOnUse">
<stop offset="0.2242" stop-color="#450FA2"/>
<stop offset="0.6364" stop-color="#0006C0"/>
<stop offset="0.8061" stop-color="#0071BC"/>
</linearGradient>
<linearGradient id="paint1_linear_636_159" x1="114.628" y1="101.07" x2="58.6154" y2="97.0503" gradientUnits="userSpaceOnUse">
<stop offset="0.2242" stop-color="#0B0078"/>
<stop offset="0.6364" stop-color="#0006C0"/>
<stop offset="0.8061" stop-color="#0071BC"/>
</linearGradient>
<linearGradient id="paint2_linear_636_159" x1="114.723" y1="99.7444" x2="58.7117" y2="95.7247" gradientUnits="userSpaceOnUse">
<stop offset="0.2242" stop-color="#0B0078"/>
<stop offset="0.6364" stop-color="#0006C0"/>
<stop offset="0.8061" stop-color="#0071BC"/>
</linearGradient>
<linearGradient id="paint3_linear_636_159" x1="115.466" y1="89.2844" x2="59.7555" y2="85.2323" gradientUnits="userSpaceOnUse">
<stop offset="0.2242" stop-color="#0B0078"/>
<stop offset="0.6364" stop-color="#0006C0"/>
<stop offset="0.8061" stop-color="#0071BC"/>
</linearGradient>
<linearGradient id="paint4_linear_636_159" x1="114.886" y1="97.4677" x2="58.8747" y2="93.4481" gradientUnits="userSpaceOnUse">
<stop offset="0.2242" stop-color="#0B0078"/>
<stop offset="0.6364" stop-color="#0006C0"/>
<stop offset="0.8061" stop-color="#0071BC"/>
</linearGradient>
<linearGradient id="paint5_linear_636_159" x1="114.777" y1="98.9898" x2="58.7647" y2="94.97" gradientUnits="userSpaceOnUse">
<stop offset="0.2242" stop-color="#0B0078"/>
<stop offset="0.6364" stop-color="#0006C0"/>
<stop offset="0.8061" stop-color="#0071BC"/>
</linearGradient>
<linearGradient id="paint6_linear_636_159" x1="115.475" y1="89.2719" x2="59.4613" y2="85.2521" gradientUnits="userSpaceOnUse">
<stop offset="0.2242" stop-color="#0B0078"/>
<stop offset="0.6364" stop-color="#0006C0"/>
<stop offset="0.8061" stop-color="#0071BC"/>
</linearGradient>
<linearGradient id="paint7_linear_636_159" x1="114.82" y1="98.3886" x2="58.81" y2="94.369" gradientUnits="userSpaceOnUse">
<stop offset="0.2242" stop-color="#0B0078"/>
<stop offset="0.6364" stop-color="#0006C0"/>
<stop offset="0.8061" stop-color="#0071BC"/>
</linearGradient>
<linearGradient id="paint8_linear_636_159" x1="86.6916" y1="90.4121" x2="67.4422" y2="94.8907" gradientUnits="userSpaceOnUse">
<stop stop-color="#0B0078"/>
<stop offset="0.3455" stop-color="#0006C0"/>
<stop offset="0.9515" stop-color="#0CB7FF"/>
</linearGradient>
<linearGradient id="paint9_linear_636_159" x1="60.5832" y1="101.254" x2="142.168" y2="96.0136" gradientUnits="userSpaceOnUse">
<stop stop-color="#812500"/>
<stop offset="0.1576" stop-color="#B30056"/>
<stop offset="0.297" stop-color="#FF5945"/>
<stop offset="0.4061" stop-color="#FFBD2D"/>
<stop offset="0.5333" stop-color="#F5FF43"/>
<stop offset="0.6182" stop-color="#82E82D"/>
<stop offset="0.7333" stop-color="#00C79F"/>
<stop offset="0.8303" stop-color="#00CCEC"/>
<stop offset="0.9576" stop-color="#69DBFF"/>
</linearGradient>
<linearGradient id="paint10_linear_636_159" x1="60.4697" y1="99.4936" x2="142.056" y2="94.2533" gradientUnits="userSpaceOnUse">
<stop stop-color="#812500"/>
<stop offset="0.1576" stop-color="#B30056"/>
<stop offset="0.297" stop-color="#FF5945"/>
<stop offset="0.4061" stop-color="#FFBD2D"/>
<stop offset="0.5333" stop-color="#F5FF43"/>
<stop offset="0.6182" stop-color="#82E82D"/>
<stop offset="0.7333" stop-color="#00C79F"/>
<stop offset="0.8303" stop-color="#00CCEC"/>
<stop offset="0.9576" stop-color="#69DBFF"/>
</linearGradient>
<linearGradient id="paint11_linear_636_159" x1="60.4809" y1="99.6661" x2="142.067" y2="94.4259" gradientUnits="userSpaceOnUse">
<stop stop-color="#812500"/>
<stop offset="0.1576" stop-color="#B30056"/>
<stop offset="0.297" stop-color="#FF5945"/>
<stop offset="0.4061" stop-color="#FFBD2D"/>
<stop offset="0.5333" stop-color="#F5FF43"/>
<stop offset="0.6182" stop-color="#82E82D"/>
<stop offset="0.7333" stop-color="#00C79F"/>
<stop offset="0.8303" stop-color="#00CCEC"/>
<stop offset="0.9576" stop-color="#69DBFF"/>
</linearGradient>
<linearGradient id="paint12_linear_636_159" x1="83.9359" y1="103.28" x2="76.9967" y2="108.663" gradientUnits="userSpaceOnUse">
<stop stop-color="white"/>
<stop offset="0.1109" stop-color="#F7F7F7"/>
<stop offset="0.2793" stop-color="#E2E2E2"/>
<stop offset="0.4842" stop-color="#C0C0C0"/>
<stop offset="0.7178" stop-color="#909090"/>
<stop offset="0.9727" stop-color="#545454"/>
<stop offset="1" stop-color="#4D4D4D"/>
</linearGradient>
<linearGradient id="paint13_linear_636_159" x1="60.8196" y1="104.94" x2="142.405" y2="99.6994" gradientUnits="userSpaceOnUse">
<stop stop-color="#812500"/>
<stop offset="0.1576" stop-color="#B30056"/>
<stop offset="0.297" stop-color="#FF5945"/>
<stop offset="0.4061" stop-color="#FFBD2D"/>
<stop offset="0.5333" stop-color="#F5FF43"/>
<stop offset="0.6182" stop-color="#82E82D"/>
<stop offset="0.7333" stop-color="#00C79F"/>
<stop offset="0.8303" stop-color="#00CCEC"/>
<stop offset="0.9576" stop-color="#69DBFF"/>
</linearGradient>
<linearGradient id="paint14_linear_636_159" x1="60.7804" y1="104.321" x2="142.366" y2="99.081" gradientUnits="userSpaceOnUse">
<stop stop-color="#812500"/>
<stop offset="0.1576" stop-color="#B30056"/>
<stop offset="0.297" stop-color="#FF5945"/>
<stop offset="0.4061" stop-color="#FFBD2D"/>
<stop offset="0.5333" stop-color="#F5FF43"/>
<stop offset="0.6182" stop-color="#82E82D"/>
<stop offset="0.7333" stop-color="#00C79F"/>
<stop offset="0.8303" stop-color="#00CCEC"/>
<stop offset="0.9576" stop-color="#69DBFF"/>
</linearGradient>
<linearGradient id="paint15_linear_636_159" x1="60.7387" y1="103.668" x2="142.324" y2="98.4275" gradientUnits="userSpaceOnUse">
<stop stop-color="#812500"/>
<stop offset="0.1576" stop-color="#B30056"/>
<stop offset="0.297" stop-color="#FF5945"/>
<stop offset="0.4061" stop-color="#FFBD2D"/>
<stop offset="0.5333" stop-color="#F5FF43"/>
<stop offset="0.6182" stop-color="#82E82D"/>
<stop offset="0.7333" stop-color="#00C79F"/>
<stop offset="0.8303" stop-color="#00CCEC"/>
<stop offset="0.9576" stop-color="#69DBFF"/>
</linearGradient>
<linearGradient id="paint16_linear_636_159" x1="70.4369" y1="93.3179" x2="79.184" y2="93.3179" gradientUnits="userSpaceOnUse">
<stop stop-color="#B3B3B3"/>
<stop offset="0.9212" stop-color="white"/>
</linearGradient>
<linearGradient id="paint17_linear_636_159" x1="113.196" y1="89.5824" x2="98.8593" y2="100.704" gradientUnits="userSpaceOnUse">
<stop stop-color="white"/>
<stop offset="0.1109" stop-color="#F7F7F7"/>
<stop offset="0.2793" stop-color="#E2E2E2"/>
<stop offset="0.4842" stop-color="#C0C0C0"/>
<stop offset="0.7178" stop-color="#909090"/>
<stop offset="0.9727" stop-color="#545454"/>
<stop offset="1" stop-color="#4D4D4D"/>
</linearGradient>
<linearGradient id="paint18_linear_636_159" x1="105.379" y1="84.9874" x2="91.9957" y2="95.3692" gradientUnits="userSpaceOnUse">
<stop stop-color="white"/>
<stop offset="0.1109" stop-color="#F7F7F7"/>
<stop offset="0.2793" stop-color="#E2E2E2"/>
<stop offset="0.4842" stop-color="#C0C0C0"/>
<stop offset="0.7178" stop-color="#909090"/>
<stop offset="0.9727" stop-color="#545454"/>
<stop offset="1" stop-color="#4D4D4D"/>
</linearGradient>
<linearGradient id="paint19_linear_636_159" x1="119.377" y1="95.5975" x2="114.086" y2="99.7024" gradientUnits="userSpaceOnUse">
<stop stop-color="white"/>
<stop offset="0.1109" stop-color="#F7F7F7"/>
<stop offset="0.2793" stop-color="#E2E2E2"/>
<stop offset="0.4842" stop-color="#C0C0C0"/>
<stop offset="0.7178" stop-color="#909090"/>
<stop offset="0.9727" stop-color="#545454"/>
<stop offset="1" stop-color="#4D4D4D"/>
</linearGradient>
<linearGradient id="paint20_linear_636_159" x1="121.914" y1="85.9407" x2="124.909" y2="113.348" gradientUnits="userSpaceOnUse">
<stop stop-color="white"/>
<stop offset="0.1109" stop-color="#F7F7F7"/>
<stop offset="0.2793" stop-color="#E2E2E2"/>
<stop offset="0.4842" stop-color="#C0C0C0"/>
<stop offset="0.7178" stop-color="#909090"/>
<stop offset="0.9727" stop-color="#545454"/>
<stop offset="1" stop-color="#4D4D4D"/>
</linearGradient>
<linearGradient id="paint21_linear_636_159" x1="91.5655" y1="60.4632" x2="85.9512" y2="98.4002" gradientUnits="userSpaceOnUse">
<stop stop-color="white"/>
<stop offset="0.1109" stop-color="#F7F7F7"/>
<stop offset="0.2793" stop-color="#E2E2E2"/>
<stop offset="0.4842" stop-color="#C0C0C0"/>
<stop offset="0.7178" stop-color="#909090"/>
<stop offset="0.9727" stop-color="#545454"/>
<stop offset="1" stop-color="#4D4D4D"/>
</linearGradient>
<linearGradient id="paint22_linear_636_159" x1="127.64" y1="113.028" x2="127.673" y2="113.028" gradientUnits="userSpaceOnUse">
<stop offset="0.2242" stop-color="#0B0078"/>
<stop offset="0.6364" stop-color="#0006C0"/>
<stop offset="0.8061" stop-color="#0071BC"/>
</linearGradient>
<linearGradient id="paint23_linear_636_159" x1="85.9879" y1="34.1199" x2="16.4204" y2="95.0769" gradientUnits="userSpaceOnUse">
<stop stop-color="#812500"/>
<stop offset="0.1576" stop-color="#B30056"/>
<stop offset="0.297" stop-color="#FF5945"/>
<stop offset="0.4061" stop-color="#FFBD2D"/>
<stop offset="0.5333" stop-color="#F5FF43"/>
<stop offset="0.6182" stop-color="#82E82D"/>
<stop offset="0.7333" stop-color="#00C79F"/>
<stop offset="0.8303" stop-color="#00CCEC"/>
<stop offset="0.9576" stop-color="#69DBFF"/>
</linearGradient>
<linearGradient id="paint24_linear_636_159" x1="93.1548" y1="26.256" x2="23.5876" y2="87.2128" gradientUnits="userSpaceOnUse">
<stop offset="0.0424" stop-color="#69DBFF"/>
<stop offset="0.1697" stop-color="#00CCEC"/>
<stop offset="0.2667" stop-color="#00C79F"/>
<stop offset="0.3818" stop-color="#82E82D"/>
<stop offset="0.4667" stop-color="#F5FF43"/>
<stop offset="0.5939" stop-color="#FFBD2D"/>
<stop offset="0.703" stop-color="#FF5945"/>
<stop offset="0.8424" stop-color="#B30056"/>
<stop offset="1" stop-color="#812500"/>
</linearGradient>
<linearGradient id="paint25_linear_636_159" x1="95.4328" y1="39.0796" x2="25.8655" y2="100.036" gradientUnits="userSpaceOnUse">
<stop offset="0.0424" stop-color="#69DBFF"/>
<stop offset="0.1697" stop-color="#00CCEC"/>
<stop offset="0.2667" stop-color="#00C79F"/>
<stop offset="0.3818" stop-color="#82E82D"/>
<stop offset="0.4667" stop-color="#F5FF43"/>
<stop offset="0.5939" stop-color="#FFBD2D"/>
<stop offset="0.703" stop-color="#FF5945"/>
<stop offset="0.8424" stop-color="#B30056"/>
<stop offset="1" stop-color="#812500"/>
</linearGradient>
</defs>
</svg>
