<svg width="62" height="58" viewBox="0 0 62 58" fill="none" xmlns="http://www.w3.org/2000/svg">
<path d="M2 56V30.8011C2 14.8933 14.8012 2 30.5882 2C46.3753 2 59.1765 14.8965 59.1765 30.8011V56M2 56H11.5294C13.2143 56 14.8302 55.3307 16.0216 54.1393C17.213 52.9479 17.8824 51.332 17.8824 49.6471V43.2941C17.8824 41.6092 17.213 39.9933 16.0216 38.8019C14.8302 37.6105 13.2143 36.9412 11.5294 36.9412H2V56ZM59.1765 56V36.9412H49.6471C47.9622 36.9412 46.3463 37.6105 45.1549 38.8019C43.9634 39.9933 43.2941 41.6092 43.2941 43.2941V49.6471C43.2941 51.332 43.9634 52.9479 45.1549 54.1393C46.3463 55.3307 47.9622 56 49.6471 56H59.1765Z" stroke="#52867E" stroke-width="4" stroke-linecap="square"/>
</svg>
