<svg width="24" height="24" viewBox="0 0 24 24" fill="none" xmlns="http://www.w3.org/2000/svg">
<path d="M5 20.5C4.30533 20.5 3.71533 20.2567 3.23 19.77C2.74333 19.2847 2.5 18.6947 2.5 18V11C2.5 10.3053 2.74333 9.71534 3.23 9.23001C3.71467 8.74334 4.30467 8.50001 5 8.50001C5.41133 8.50001 5.78867 8.59167 6.132 8.77501C6.47533 8.95834 6.76933 9.20001 7.014 9.50001H8.5V4.84601H17.5V9.50001H19C19.6947 9.50001 20.2847 9.74334 20.77 10.23C21.2567 10.7153 21.5 11.3053 21.5 12V19.5H7.014C6.76867 19.8 6.47467 20.0417 6.132 20.225C5.78933 20.4083 5.412 20.5 5 20.5ZM5 19.5C5.41133 19.5 5.76433 19.353 6.059 19.059C6.353 18.7643 6.5 18.4113 6.5 18V11C6.5 10.5887 6.353 10.2357 6.059 9.94101C5.76433 9.64701 5.41133 9.50001 5 9.50001C4.58867 9.50001 4.23567 9.64701 3.941 9.94101C3.647 10.2357 3.5 10.5887 3.5 11V18C3.5 18.4113 3.647 18.7643 3.941 19.059C4.23567 19.353 4.58867 19.5 5 19.5ZM9.5 9.50001H16.5V5.84601H9.5V9.50001ZM7.5 18.5H20.5V12C20.5 11.5887 20.353 11.2357 20.059 10.941C19.7643 10.647 19.4113 10.5 19 10.5H7.5V18.5ZM15 14C15.2833 14 15.521 13.904 15.713 13.712C15.905 13.52 16.0007 13.2827 16 13C15.9993 12.7173 15.9033 12.48 15.712 12.288C15.5207 12.096 15.2833 12 15 12C14.7167 12 14.4793 12.096 14.288 12.288C14.0967 12.48 14.0007 12.7173 14 13C13.9993 13.2827 14.0953 13.5203 14.288 13.713C14.4807 13.9057 14.718 14.0013 15 14ZM18 14C18.2833 14 18.521 13.904 18.713 13.712C18.905 13.52 19.0007 13.2827 19 13C18.9993 12.7173 18.9033 12.48 18.712 12.288C18.5207 12.096 18.2833 12 18 12C17.7167 12 17.4793 12.096 17.288 12.288C17.0967 12.48 17.0007 12.7173 17 13C16.9993 13.2827 17.0953 13.5203 17.288 13.713C17.4807 13.9057 17.718 14.0013 18 14ZM15 17C15.2833 17 15.521 16.904 15.713 16.712C15.905 16.52 16.0007 16.2827 16 16C15.9993 15.7173 15.9033 15.48 15.712 15.288C15.5207 15.096 15.2833 15 15 15C14.7167 15 14.4793 15.096 14.288 15.288C14.0967 15.48 14.0007 15.7173 14 16C13.9993 16.2827 14.0953 16.5203 14.288 16.713C14.4807 16.9057 14.718 17.0013 15 17ZM18 17C18.2833 17 18.521 16.904 18.713 16.712C18.905 16.52 19.0007 16.2827 19 16C18.9993 15.7173 18.9033 15.48 18.712 15.288C18.5207 15.096 18.2833 15 18 15C17.7167 15 17.4793 15.096 17.288 15.288C17.0967 15.48 17.0007 15.7173 17 16C16.9993 16.2827 17.0953 16.5203 17.288 16.713C17.4807 16.9057 17.718 17.0013 18 17ZM9 17H13V12H9V17Z" fill="black"/>
</svg>
