<svg width="40" height="40" viewBox="0 0 40 40" fill="none" xmlns="http://www.w3.org/2000/svg">
<path d="M20.0016 15.0002C18.6755 15.0002 17.4038 15.5269 16.4661 16.4646C15.5284 17.4023 15.0016 18.6741 15.0016 20.0002C15.0016 21.3262 15.5284 22.598 16.4661 23.5357C17.4038 24.4734 18.6755 25.0002 20.0016 25.0002C21.3277 25.0002 22.5995 24.4734 23.5372 23.5357C24.4748 22.598 25.0016 21.3262 25.0016 20.0002C25.0016 18.6741 24.4748 17.4023 23.5372 16.4646C22.5995 15.5269 21.3277 15.0002 20.0016 15.0002ZM20.0016 11.6668C22.2118 11.6668 24.3314 12.5448 25.8942 14.1076C27.457 15.6704 28.335 17.79 28.335 20.0002C28.335 22.2103 27.457 24.3299 25.8942 25.8927C24.3314 27.4555 22.2118 28.3335 20.0016 28.3335C17.7915 28.3335 15.6719 27.4555 14.1091 25.8927C12.5463 24.3299 11.6683 22.2103 11.6683 20.0002C11.6683 17.79 12.5463 15.6704 14.1091 14.1076C15.6719 12.5448 17.7915 11.6668 20.0016 11.6668ZM30.835 11.2502C30.835 11.8027 30.6155 12.3326 30.2248 12.7233C29.8341 13.114 29.3042 13.3335 28.7516 13.3335C28.1991 13.3335 27.6692 13.114 27.2785 12.7233C26.8878 12.3326 26.6683 11.8027 26.6683 11.2502C26.6683 10.6976 26.8878 10.1677 27.2785 9.77702C27.6692 9.38632 28.1991 9.16683 28.7516 9.16683C29.3042 9.16683 29.8341 9.38632 30.2248 9.77702C30.6155 10.1677 30.835 10.6976 30.835 11.2502ZM20.0016 6.66683C15.8783 6.66683 15.205 6.6785 13.2866 6.7635C11.98 6.82516 11.1033 7.00016 10.29 7.31683C9.60932 7.56673 8.99398 7.96727 8.48996 8.4885C7.96831 8.99249 7.56722 9.6078 7.31663 10.2885C6.99996 11.1052 6.82496 11.9802 6.76496 13.2852C6.67829 15.1252 6.66663 15.7685 6.66663 20.0002C6.66663 24.1252 6.67829 24.7968 6.76329 26.7152C6.82496 28.0202 6.99996 28.8985 7.31496 29.7102C7.59829 30.4352 7.93163 30.9568 8.48496 31.5102C9.04663 32.0702 9.56829 32.4052 10.285 32.6818C11.1083 33.0002 11.985 33.1768 13.285 33.2368C15.125 33.3235 15.7683 33.3335 20 33.3335C24.125 33.3335 24.7966 33.3218 26.715 33.2368C28.0183 33.1752 28.895 33.0002 29.71 32.6852C30.39 32.434 31.0051 32.0337 31.51 31.5135C32.0716 30.9535 32.4066 30.4318 32.6833 29.7135C33 28.8935 33.1766 28.0168 33.2366 26.7135C33.3233 24.8752 33.3333 24.2302 33.3333 20.0002C33.3333 15.8768 33.3216 15.2035 33.2366 13.2852C33.175 11.9818 32.9983 11.1018 32.6833 10.2885C32.4321 9.60852 32.0317 8.99347 31.5116 8.4885C31.0079 7.96657 30.3925 7.56544 29.7116 7.31516C28.895 6.9985 28.0183 6.8235 26.715 6.7635C24.8766 6.67683 24.235 6.66683 20.0016 6.66683ZM20.0016 3.3335C24.53 3.3335 25.095 3.35016 26.8733 3.4335C28.6466 3.51683 29.8566 3.79516 30.9183 4.2085C32.0183 4.63183 32.945 5.20516 33.8716 6.13016C34.7191 6.96332 35.3749 7.97114 35.7933 9.0835C36.205 10.1452 36.485 11.3552 36.5683 13.1302C36.6466 14.9068 36.6683 15.4718 36.6683 20.0002C36.6683 24.5285 36.6516 25.0935 36.5683 26.8702C36.485 28.6452 36.205 29.8535 35.7933 30.9168C35.376 32.0298 34.7201 33.0378 33.8716 33.8702C33.0382 34.7174 32.0305 35.3731 30.9183 35.7918C29.8566 36.2035 28.6466 36.4835 26.8733 36.5668C25.095 36.6452 24.53 36.6668 20.0016 36.6668C15.4733 36.6668 14.9083 36.6502 13.13 36.5668C11.3566 36.4835 10.1483 36.2035 9.08496 35.7918C7.97217 35.3743 6.96417 34.7184 6.13163 33.8702C5.28401 33.0371 4.62823 32.0293 4.20996 30.9168C3.79663 29.8552 3.51829 28.6452 3.43496 26.8702C3.35496 25.0935 3.33496 24.5285 3.33496 20.0002C3.33496 15.4718 3.35163 14.9068 3.43496 13.1302C3.51829 11.3535 3.79663 10.1468 4.20996 9.0835C4.62702 7.97046 5.28297 6.96236 6.13163 6.13016C6.96441 5.28221 7.97234 4.62638 9.08496 4.2085C10.1466 3.79516 11.355 3.51683 13.13 3.4335C14.9083 3.35516 15.4733 3.3335 20.0016 3.3335Z" fill="white"/>
</svg>
