<svg width="40" height="40" viewBox="0 0 40 40" fill="none" xmlns="http://www.w3.org/2000/svg">
<g clip-path="url(#clip0_636_211)">
<path fill-rule="evenodd" clip-rule="evenodd" d="M29.6951 11.6483C29.1067 10.8017 27.5334 9.61167 24.9851 10.125C23.4984 10.4233 22.6101 11.1583 22.0451 12.1283C21.4434 13.1617 21.1517 14.5667 21.1517 16.2017C21.1517 16.6437 20.9761 17.0676 20.6636 17.3802C20.351 17.6927 19.9271 17.8683 19.4851 17.8683C15.5417 17.8683 11.7884 16.6967 8.63007 13.5283C8.39162 14.8138 8.29771 16.122 8.35007 17.4283C8.43841 19.2383 8.87007 21.0533 9.89507 22.6083C10.9034 24.1367 12.5617 25.5367 15.3351 26.4167C15.6068 26.5029 15.8519 26.6574 16.0469 26.8653C16.2419 27.0733 16.3803 27.3278 16.4489 27.6046C16.5174 27.8813 16.5139 28.171 16.4385 28.4459C16.3631 28.7209 16.2185 28.9719 16.0184 29.175C15.1301 30.0862 14.1233 30.8738 13.0251 31.5167C14.7917 31.7 16.4951 31.7133 18.0751 31.57C21.2751 31.28 23.8234 30.365 25.4167 29.07C28.7717 26.35 30.5667 22.2933 30.2334 15.4967C30.1767 14.38 31.2551 13.175 31.7751 12.26C30.9901 12.4067 30.2034 12.38 29.6951 11.6483ZM7.65674 8.30667C7.95849 8.2716 8.2641 8.31967 8.54051 8.44569C8.81693 8.57171 9.05364 8.77088 9.22507 9.02167C11.6851 12.62 14.6384 14.1167 17.9167 14.4567C18.0767 13.055 18.4551 11.67 19.1667 10.45C20.2101 8.66 21.9067 7.34334 24.3301 6.85667C27.6801 6.18334 30.2301 7.39667 31.7084 8.88167L34.6951 8.32334C35.0076 8.26478 35.3304 8.29684 35.6253 8.41575C35.9202 8.53466 36.1749 8.73545 36.3594 8.99442C36.5439 9.25339 36.6505 9.55973 36.6666 9.8773C36.6826 10.1949 36.6075 10.5104 36.4501 10.7867L33.5834 15.8233C33.8451 23.0917 31.8251 28.165 27.5184 31.66C25.2351 33.5133 21.9651 34.565 18.3767 34.89C14.7601 35.2167 10.6717 34.8217 6.60841 33.635C6.26123 33.5337 5.95641 33.3223 5.73995 33.0326C5.52349 32.7429 5.40714 32.3906 5.40846 32.029C5.40978 31.6673 5.52869 31.3159 5.74725 31.0278C5.96581 30.7396 6.27216 30.5304 6.62007 30.4317C8.66341 29.85 10.2201 29.3483 11.6251 28.47C9.62674 27.41 8.15507 26.0233 7.11341 24.4433C5.66674 22.2467 5.13007 19.7967 5.02341 17.5883C4.91674 15.38 5.23507 13.3333 5.57174 11.8583C5.76341 11.0167 5.98674 10.1733 6.29507 9.36667C6.40383 9.08232 6.5884 8.83319 6.82874 8.64632C7.06909 8.45946 7.35435 8.34199 7.65674 8.30667Z" fill="white"/>
</g>
<defs>
<clipPath id="clip0_636_211">
<rect width="40" height="40" fill="white"/>
</clipPath>
</defs>
</svg>
