<svg width="45" height="36" viewBox="0 0 45 36" fill="none" xmlns="http://www.w3.org/2000/svg">
<path d="M4.5 36C3.2625 36 2.2035 35.5597 1.323 34.6792C0.4425 33.7987 0.0015 32.739 0 31.5V4.5C0 3.2625 0.441 2.2035 1.323 1.323C2.205 0.4425 3.264 0.0015 4.5 0H40.5C41.7375 0 42.7972 0.441 43.6792 1.323C44.5612 2.205 45.0015 3.264 45 4.5V31.5C45 32.7375 44.5597 33.7972 43.6792 34.6792C42.7987 35.5612 41.739 36.0015 40.5 36H4.5ZM22.5 20.25L4.5 9V31.5H40.5V9L22.5 20.25ZM22.5 15.75L40.5 4.5H4.5L22.5 15.75ZM4.5 9V4.5V31.5V9Z" fill="#52867E"/>
</svg>
