<svg width="102" height="64" viewBox="0 0 102 64" fill="none" xmlns="http://www.w3.org/2000/svg">
<path d="M54.3013 2.92094C54.9832 2.92021 55.5676 2.95779 56.0769 3.0167C50.4511 7.12387 53.5218 15.6481 68.648 11.9629C73.8687 10.6541 78.8062 5.03351 84.8736 7.71579C79.9155 4.0715 72.7532 8.69834 68.1873 9.90992C67.1374 10.1542 65.5605 10.3429 64.5074 10.4191C54.2512 11.1781 57.0232 5.01385 61.2045 4.03465L65.3837 3.05596L61.6017 1.49336C43.7088 -5.89907 31.489 16.9863 13.2905 8.78048C26.5751 18.4573 42.5507 2.93084 54.3013 2.92094Z" fill="#52867E"/>
<path d="M4.68656 28.9571C4.44123 28.6904 4.31856 28.3491 4.31856 27.9331C4.60656 27.9331 4.87323 27.8477 5.11856 27.6771C5.37456 27.5064 5.56123 27.2451 5.67856 26.8931L8.30256 19.149C7.87589 19.0104 7.33723 18.941 6.68656 18.941C6.68656 18.4824 6.81456 18.0984 7.07056 17.7891H11.4546L14.4306 26.8451C14.5479 27.1971 14.7346 27.4691 14.9906 27.6611C15.2466 27.8424 15.5132 27.9331 15.7906 27.9331C15.7906 28.3491 15.6679 28.6904 15.4226 28.9571H11.0866C10.8412 28.6904 10.7186 28.3491 10.7186 27.9331C10.9959 27.9331 11.2146 27.8744 11.3746 27.7571C11.5452 27.6291 11.6306 27.4317 11.6306 27.1651C11.6306 27.0691 11.6199 26.9571 11.5986 26.8291C11.5879 26.7011 11.5612 26.5624 11.5186 26.4131L11.4226 26.0771H7.83856L7.74256 26.4131C7.69989 26.5517 7.66256 26.6797 7.63056 26.7971C7.60923 26.9144 7.59856 27.0211 7.59856 27.1171C7.59856 27.4051 7.68923 27.6131 7.87056 27.7411C8.05189 27.8691 8.30256 27.9331 8.62256 27.9331C8.62256 28.3491 8.49989 28.6904 8.25456 28.9571H4.68656ZM8.19056 24.8291H11.0706L9.93456 20.861C9.83856 20.541 9.7159 20.269 9.56656 20.045L8.19056 24.8291ZM23.2792 32.4451C22.8845 32.4451 22.5539 32.3864 22.2872 32.2691C22.0205 32.1624 21.8872 31.9437 21.8872 31.6131V28.5731C21.6845 28.7757 21.4392 28.9251 21.1512 29.0211C20.8632 29.1171 20.5485 29.1651 20.2072 29.1651C19.6205 29.1651 19.0712 29.0211 18.5592 28.7331C18.0472 28.4344 17.6312 27.9864 17.3112 27.3891C17.0019 26.7917 16.8472 26.0397 16.8472 25.1331C16.8472 24.1091 17.0392 23.2397 17.4232 22.5251C17.8072 21.8104 18.3245 21.2664 18.9752 20.8931C19.6259 20.5091 20.3459 20.317 21.1352 20.317C21.4552 20.317 21.7752 20.349 22.0952 20.413C22.4152 20.4664 22.7245 20.541 23.0232 20.637C23.1405 20.6157 23.2525 20.5997 23.3592 20.5891C23.4659 20.5677 23.5832 20.557 23.7112 20.557H24.7192C24.8472 20.6744 24.9432 20.8184 25.0072 20.989C25.0712 21.1597 25.1032 21.3357 25.1032 21.517C24.7832 21.517 24.5912 21.5864 24.5272 21.725C24.4632 21.8637 24.4312 22.0931 24.4312 22.4131V30.6051C24.4312 30.8611 24.5005 31.0531 24.6392 31.1811C24.7779 31.3197 24.9699 31.4157 25.2152 31.4691V31.9011C25.0232 32.0717 24.7779 32.2051 24.4792 32.3011C24.1805 32.3971 23.7805 32.4451 23.2792 32.4451ZM21.3112 27.7731C21.4285 27.7731 21.5352 27.7624 21.6312 27.7411C21.7272 27.7091 21.8125 27.6717 21.8872 27.6291V21.6771C21.6845 21.5384 21.4392 21.469 21.1512 21.469C20.8632 21.469 20.6019 21.565 20.3672 21.7571C20.1325 21.9491 19.9459 22.2744 19.8072 22.733C19.6685 23.1811 19.5992 23.7997 19.5992 24.5891C19.5992 25.6877 19.7645 26.4931 20.0952 27.0051C20.4259 27.5171 20.8312 27.7731 21.3112 27.7731ZM30.0377 29.0691C29.291 29.0691 28.7097 28.8397 28.2937 28.3811C27.8777 27.9224 27.6697 27.3037 27.6697 26.5251V22.1251C27.6697 21.9437 27.6004 21.8157 27.4617 21.741C27.323 21.6664 27.131 21.629 26.8857 21.629V20.925C27.0244 20.8077 27.3124 20.6851 27.7497 20.557C28.1977 20.4184 28.699 20.349 29.2537 20.349C29.6697 20.349 29.9417 20.397 30.0697 20.493C30.2084 20.589 30.2777 20.8237 30.2777 21.1971V26.5731C30.2777 26.8931 30.331 27.1384 30.4377 27.3091C30.5444 27.4797 30.731 27.5651 30.9977 27.5651C31.2217 27.5651 31.435 27.4957 31.6377 27.3571C31.851 27.2184 32.027 27.0584 32.1657 26.8771V22.1251C32.1657 21.9437 32.0857 21.8157 31.9257 21.741C31.7657 21.6664 31.547 21.629 31.2697 21.629V20.925C31.419 20.8077 31.7124 20.6851 32.1497 20.557C32.587 20.4184 33.1044 20.349 33.7017 20.349C34.1177 20.349 34.4004 20.397 34.5497 20.493C34.699 20.589 34.7737 20.8237 34.7737 21.1971V27.0851C34.7737 27.3411 34.8377 27.5544 34.9657 27.7251C35.1044 27.8957 35.2964 27.9917 35.5417 28.0131V28.4611C35.371 28.6637 35.099 28.8184 34.7257 28.9251C34.363 29.0211 34.011 29.0691 33.6697 29.0691C33.3177 29.0691 33.0084 28.9784 32.7417 28.7971C32.4857 28.6051 32.315 28.3331 32.2297 27.9811C31.707 28.7064 30.9764 29.0691 30.0377 29.0691ZM39.8979 29.0691C39.0979 29.0691 38.4473 28.8504 37.9459 28.4131C37.4553 27.9651 37.2099 27.3944 37.2099 26.7011C37.2099 26.0077 37.4339 25.4477 37.8819 25.0211C38.3406 24.5944 39.0446 24.3811 39.9939 24.3811C40.3033 24.3811 40.6286 24.4131 40.9699 24.4771C41.3113 24.5304 41.5886 24.6157 41.8019 24.7331V22.6051C41.8019 22.1571 41.6846 21.8477 41.4499 21.6771C41.2259 21.4957 40.9486 21.405 40.6179 21.405C40.2659 21.405 39.9779 21.4904 39.7539 21.661C39.9673 21.7357 40.1219 21.853 40.2179 22.0131C40.3139 22.1624 40.3619 22.3277 40.3619 22.509C40.3619 22.8611 40.2339 23.1437 39.9779 23.357C39.7326 23.5597 39.4286 23.661 39.0659 23.661C38.6606 23.661 38.3353 23.5437 38.0899 23.3091C37.8446 23.0637 37.7219 22.7597 37.7219 22.397C37.7219 22.0344 37.8446 21.693 38.0899 21.373C38.3353 21.0424 38.7139 20.7704 39.2259 20.557C39.7486 20.3437 40.4206 20.2371 41.2419 20.2371C43.3859 20.2371 44.4579 21.0851 44.4579 22.7811V27.0211C44.4579 27.5331 44.7033 27.8424 45.1939 27.9491V28.4611C45.0553 28.6637 44.8206 28.8184 44.4899 28.9251C44.1593 29.0211 43.8393 29.0691 43.5299 29.0691C42.8046 29.0691 42.2926 28.8184 41.9939 28.3171C41.7806 28.5091 41.4979 28.6851 41.1459 28.8451C40.7939 28.9944 40.3779 29.0691 39.8979 29.0691ZM40.9379 27.7731C41.0873 27.7731 41.2419 27.7517 41.4019 27.7091C41.5619 27.6557 41.6953 27.5917 41.8019 27.5171V25.9651C41.6953 25.8904 41.5566 25.8264 41.3859 25.7731C41.2259 25.7197 41.0659 25.6931 40.9059 25.6931C40.6286 25.6931 40.3886 25.7837 40.1859 25.9651C39.9833 26.1357 39.8819 26.4077 39.8819 26.7811C39.8819 27.0691 39.9779 27.3091 40.1699 27.5011C40.3619 27.6824 40.6179 27.7731 40.9379 27.7731ZM47.3397 28.9571C47.105 28.6904 46.9877 28.3491 46.9877 27.9331C47.3397 27.9331 47.585 27.8744 47.7237 27.7571C47.873 27.6397 47.9477 27.4317 47.9477 27.1331V19.613C47.9477 19.3144 47.873 19.1064 47.7237 18.989C47.585 18.861 47.3397 18.797 46.9877 18.797C46.9877 18.3917 47.105 18.0557 47.3397 17.7891H51.2437C51.3504 17.917 51.4357 18.0717 51.4997 18.253C51.5637 18.4344 51.5957 18.6157 51.5957 18.797C51.2437 18.797 50.993 18.861 50.8437 18.989C50.705 19.1064 50.6357 19.3144 50.6357 19.613V22.6051H54.1237V19.613C54.1237 19.3144 54.049 19.1064 53.8997 18.989C53.7504 18.861 53.505 18.797 53.1637 18.797C53.1637 18.3917 53.281 18.0557 53.5157 17.7891H57.4357C57.6704 18.0557 57.7877 18.3917 57.7877 18.797C57.4464 18.797 57.1957 18.861 57.0357 18.989C56.8864 19.1064 56.8117 19.3144 56.8117 19.613V27.1331C56.8117 27.4317 56.8864 27.6397 57.0357 27.7571C57.1957 27.8744 57.4464 27.9331 57.7877 27.9331C57.7877 28.3491 57.6704 28.6904 57.4357 28.9571H53.5157C53.281 28.6904 53.1637 28.3491 53.1637 27.9331C53.505 27.9331 53.7504 27.8744 53.8997 27.7571C54.049 27.6397 54.1237 27.4317 54.1237 27.1331V23.949H50.6357V27.1331C50.6357 27.4317 50.705 27.6397 50.8437 27.7571C50.993 27.8744 51.2437 27.9331 51.5957 27.9331C51.5957 28.1251 51.5637 28.3117 51.4997 28.4931C51.4357 28.6744 51.3504 28.8291 51.2437 28.9571H47.3397ZM62.1848 29.0691C61.3848 29.0691 60.7341 28.8504 60.2328 28.4131C59.7421 27.9651 59.4968 27.3944 59.4968 26.7011C59.4968 26.0077 59.7208 25.4477 60.1688 25.0211C60.6275 24.5944 61.3315 24.3811 62.2808 24.3811C62.5901 24.3811 62.9155 24.4131 63.2568 24.4771C63.5981 24.5304 63.8755 24.6157 64.0888 24.7331V22.6051C64.0888 22.1571 63.9715 21.8477 63.7368 21.6771C63.5128 21.4957 63.2355 21.405 62.9048 21.405C62.5528 21.405 62.2648 21.4904 62.0408 21.661C62.2541 21.7357 62.4088 21.853 62.5048 22.0131C62.6008 22.1624 62.6488 22.3277 62.6488 22.509C62.6488 22.8611 62.5208 23.1437 62.2648 23.357C62.0195 23.5597 61.7155 23.661 61.3528 23.661C60.9475 23.661 60.6221 23.5437 60.3768 23.3091C60.1315 23.0637 60.0088 22.7597 60.0088 22.397C60.0088 22.0344 60.1315 21.693 60.3768 21.373C60.6221 21.0424 61.0008 20.7704 61.5128 20.557C62.0355 20.3437 62.7075 20.2371 63.5288 20.2371C65.6728 20.2371 66.7448 21.0851 66.7448 22.7811V27.0211C66.7448 27.5331 66.9901 27.8424 67.4808 27.9491V28.4611C67.3421 28.6637 67.1075 28.8184 66.7768 28.9251C66.4461 29.0211 66.1261 29.0691 65.8168 29.0691C65.0915 29.0691 64.5795 28.8184 64.2808 28.3171C64.0675 28.5091 63.7848 28.6851 63.4328 28.8451C63.0808 28.9944 62.6648 29.0691 62.1848 29.0691ZM63.2248 27.7731C63.3741 27.7731 63.5288 27.7517 63.6888 27.7091C63.8488 27.6557 63.9821 27.5917 64.0888 27.5171V25.9651C63.9821 25.8904 63.8435 25.8264 63.6728 25.7731C63.5128 25.7197 63.3528 25.6931 63.1928 25.6931C62.9155 25.6931 62.6755 25.7837 62.4728 25.9651C62.2701 26.1357 62.1688 26.4077 62.1688 26.7811C62.1688 27.0691 62.2648 27.3091 62.4568 27.5011C62.6488 27.6824 62.9048 27.7731 63.2248 27.7731ZM71.8037 29.0691L69.2757 22.253C69.169 21.9651 69.057 21.7571 68.9397 21.629C68.8224 21.4904 68.625 21.4211 68.3477 21.4211C68.3477 21.2504 68.3744 21.0797 68.4277 20.909C68.481 20.7277 68.5664 20.5784 68.6837 20.4611H72.3317C72.449 20.5784 72.5397 20.7277 72.6037 20.909C72.6677 21.0797 72.6997 21.2504 72.6997 21.4211C72.4864 21.4211 72.305 21.4797 72.1557 21.5971C72.017 21.7144 71.9477 21.8957 71.9477 22.141C71.9477 22.1837 71.953 22.2371 71.9637 22.3011C71.985 22.365 72.001 22.4237 72.0117 22.477L72.6677 24.653L73.4037 27.4531L74.1397 24.653L74.7637 22.477C74.785 22.4131 74.801 22.3491 74.8117 22.285C74.8224 22.2104 74.8277 22.1464 74.8277 22.0931C74.8277 21.8691 74.753 21.7037 74.6037 21.5971C74.4544 21.4797 74.2517 21.4211 73.9957 21.4211C73.9957 21.2504 74.017 21.0797 74.0597 20.909C74.1024 20.7277 74.1824 20.5784 74.2997 20.4611H77.4037C77.521 20.5784 77.601 20.7277 77.6437 20.909C77.697 21.0797 77.7237 21.2504 77.7237 21.4211C77.4464 21.4211 77.2384 21.4904 77.0997 21.629C76.9717 21.7571 76.8597 21.9651 76.7637 22.253L75.0997 27.3571C74.929 27.9437 74.7317 28.3757 74.5077 28.6531C74.2944 28.9304 73.9477 29.0691 73.4677 29.0691H71.8037ZM82.6438 29.1011C81.4491 29.1011 80.4945 28.7224 79.7798 27.9651C79.0758 27.2077 78.7238 26.1517 78.7238 24.797C78.7238 23.8691 78.8998 23.0691 79.2518 22.397C79.6038 21.7144 80.0785 21.1917 80.6758 20.8291C81.2838 20.4664 81.9718 20.285 82.7398 20.285C83.6998 20.285 84.4678 20.5677 85.0438 21.133C85.6305 21.6877 85.9238 22.4717 85.9238 23.4851C85.9238 23.8904 85.8545 24.2477 85.7158 24.5571C85.5878 24.8557 85.3158 25.0051 84.8998 25.0051H81.4438C81.4758 25.8477 81.6678 26.4451 82.0198 26.7971C82.3825 27.1491 82.8518 27.3251 83.4278 27.3251C83.7905 27.3251 84.1265 27.2717 84.4358 27.1651C84.7451 27.0477 85.0331 26.8877 85.2998 26.6851C85.3958 26.7704 85.4705 26.9037 85.5238 27.0851C85.5878 27.2557 85.6198 27.3997 85.6198 27.5171C85.6198 27.6877 85.4971 27.9011 85.2518 28.1571C85.0171 28.4024 84.6758 28.6211 84.2278 28.8131C83.7905 29.0051 83.2625 29.1011 82.6438 29.1011ZM81.4438 23.7891H83.0598C83.2411 23.7891 83.3531 23.7197 83.3958 23.581C83.4491 23.4424 83.4758 23.2717 83.4758 23.069C83.4758 22.3864 83.3905 21.9384 83.2198 21.725C83.0598 21.501 82.8678 21.3891 82.6438 21.3891C82.4625 21.3891 82.2811 21.4584 82.0998 21.5971C81.9185 21.7357 81.7691 21.981 81.6518 22.333C81.5345 22.6744 81.4651 23.1597 81.4438 23.7891ZM88.2442 28.9571C88.1268 28.8397 88.0308 28.7117 87.9562 28.5731C87.8922 28.4344 87.8602 28.2797 87.8602 28.1091C88.1802 28.1091 88.4095 28.0397 88.5482 27.9011C88.6868 27.7624 88.7562 27.5384 88.7562 27.2291V22.5571C88.7562 22.2797 88.6762 22.077 88.5162 21.949C88.3668 21.8211 88.0895 21.7571 87.6842 21.7571V21.037C87.9295 20.8984 88.2388 20.7704 88.6122 20.653C88.9962 20.5357 89.3642 20.445 89.7162 20.3811C90.0788 20.3064 90.3562 20.269 90.5482 20.269C90.7722 20.269 90.9535 20.3384 91.0922 20.477C91.2415 20.6157 91.3268 20.9144 91.3482 21.373C91.6148 21.0424 91.9508 20.7757 92.3562 20.573C92.7722 20.3704 93.2522 20.269 93.7962 20.269C94.5428 20.269 95.1028 20.461 95.4762 20.845C95.8602 21.2184 96.0522 21.8584 96.0522 22.765V27.1331C96.0522 27.6557 96.3082 27.9651 96.8202 28.0611L96.8362 28.5251C96.7295 28.6317 96.5588 28.7277 96.3242 28.8131C96.0895 28.8877 95.8335 28.9464 95.5562 28.9891C95.2895 29.0317 95.0388 29.0531 94.8042 29.0531C94.3455 29.0531 94.0042 28.9677 93.7802 28.7971C93.5668 28.6264 93.4602 28.3544 93.4602 27.9811V22.989C93.4602 22.5517 93.3642 22.2477 93.1722 22.0771C92.9802 21.9064 92.7455 21.8211 92.4682 21.8211C92.0308 21.8211 91.6628 21.9971 91.3642 22.3491V27.2291C91.3642 27.5384 91.4282 27.7624 91.5562 27.9011C91.6948 28.0397 91.9242 28.1091 92.2442 28.1091C92.2442 28.4291 92.1215 28.7117 91.8762 28.9571H88.2442Z" fill="#52867E"/>
<path d="M44.3331 55.1754C42.8192 49.0418 40.225 46.6642 39.059 45.4053C35.9306 48.1381 34.2792 51.7242 33.7902 52.9171H33.7832C33.7832 52.9171 35.0119 53.215 35.8669 54.4968C36.7219 55.7787 36.486 55.7787 36.486 55.7787C36.486 55.7787 35.4911 54.7297 34.3078 54.0808C35.4951 56.512 38.4694 61.4559 43.7495 63.143C44.0176 61.5438 44.4156 58.539 44.3331 55.1754Z" fill="url(#paint0_linear_582_1353)"/>
<path d="M44.2849 42.5023C46.6646 46.1484 47.1224 51.043 46.9098 55.3131C47.5051 58.4514 47.728 61.5903 47.5911 63.9542C48.6983 59.7749 49.0371 55.8774 48.9806 52.5059C47.4264 45.6365 44.2849 42.5023 44.2849 42.5023Z" fill="url(#paint1_linear_582_1353)"/>
<path d="M55.7275 56.2657C55.2973 59.9781 54.5281 62.8819 54.5273 62.8834C56.7526 58.9712 57.9736 54.9299 58.6366 51.4674C58.1955 47.3182 57.0749 44.3019 57.0749 44.3019C57.3705 48.6306 56.6666 52.8183 55.7275 56.2657Z" fill="url(#paint2_linear_582_1353)"/>
<path d="M62.1099 48.5663C62.1116 48.5572 62.1135 48.5479 62.1151 48.5388C62.1011 48.5251 62.1 48.5351 62.1099 48.5663Z" fill="url(#paint3_linear_582_1353)"/>
<path d="M61.3994 51.8061C62.3766 55.1253 62.6261 57.573 62.6261 57.573C62.9122 55.9488 63.2317 53.538 63.3428 51.7163C62.7594 50.0038 62.1773 48.7815 62.1098 48.5669C61.9203 49.651 61.6781 50.738 61.3994 51.8061Z" fill="url(#paint4_linear_582_1353)"/>
<path d="M51.492 55.6113C51.5145 60.1558 50.8787 63.8585 50.8787 63.8585C52.524 59.7642 53.4818 56.1448 53.957 53.0099C53.4334 46.0225 50.9708 41.4183 50.9708 41.4183C52.2019 46.2071 52.055 51.3501 51.492 55.6113Z" fill="url(#paint5_linear_582_1353)"/>
<path d="M67.2253 45.7067C68.2688 47.8735 68.8667 50.4472 69.2027 52.8876L71.3135 45.9997L67.2253 45.7067Z" fill="url(#paint6_linear_582_1353)"/>
<path d="M64.5916 48.1484C64.9728 49.3214 65.147 51.1293 65.2035 52.9617C66.4024 56.191 66.6357 59.7217 66.6357 59.7217C67.1012 56.7329 67.0055 53.9463 66.7041 51.7267C65.5984 49.5568 64.5916 48.1484 64.5916 48.1484Z" fill="url(#paint7_linear_582_1353)"/>
<path d="M41.2425 55.6445C42.3703 55.6445 43.3706 54.9658 43.9935 53.9196C43.0256 50.6382 41.7497 48.5772 40.6667 47.2087C39.0523 47.5489 37.8225 49.2935 37.8225 51.3961C37.8225 53.7424 39.3537 55.6445 41.2425 55.6445Z" fill="url(#paint8_linear_582_1353)"/>
<path opacity="0.37" d="M41.5889 54.6784C42.4743 54.6784 43.2799 54.2591 43.8871 53.5733C42.9332 50.4939 41.7107 48.5279 40.6668 47.2087C39.6698 47.4189 38.82 48.1648 38.3154 49.1996C38.2206 49.5892 38.1688 50.0019 38.1688 50.4299C38.1689 52.7764 39.7001 54.6784 41.5889 54.6784Z" fill="#666666"/>
<path d="M57.0746 44.3019C55.9427 43.5685 54.787 43.0234 53.6334 42.6359C54.8242 46.8225 54.8585 53.9554 50.8787 63.8586C51.6321 63.7558 52.3958 63.5942 53.1621 63.3646C54.5704 60.299 57.6383 52.5541 57.0746 44.3019Z" fill="url(#paint9_linear_582_1353)"/>
<path d="M47.5912 63.9542C48.2741 64.006 48.9774 64.0155 49.6943 63.9741C50.7279 60.6831 53.2864 50.4245 50.9711 41.4184C49.6661 41.2323 48.3913 41.2243 47.1862 41.3467C48.1441 44.0703 50.4785 53.0559 47.5912 63.9542Z" fill="url(#paint10_linear_582_1353)"/>
<path d="M45.6832 63.6928C46.5146 60.2583 48.6851 49.2446 44.2846 42.5023C43.9965 42.5874 43.7157 42.679 43.4439 42.7767C42.6621 43.058 41.9335 43.4093 41.2542 43.8098C45.51 49.8549 44.3151 59.7838 43.7435 63.1782C44.3532 63.383 45.0028 63.5576 45.6832 63.6928Z" fill="url(#paint11_linear_582_1353)"/>
<path opacity="0.45" d="M44.3328 55.1769C44.2172 54.7084 44.0955 54.2605 43.9684 53.8347C43.783 56.2823 43.1234 59.1231 41.6113 62.2296C42.277 62.5901 42.9904 62.898 43.7499 63.1408C44.0176 61.5413 44.4153 58.5383 44.3328 55.1769Z" fill="url(#paint12_linear_582_1353)"/>
<path d="M67.2253 45.7067C66.7326 46.1299 65.9281 46.9274 65.5349 47.1229C66.2466 48.5509 67.5687 53.7301 66.6357 59.7217C67.4218 60.2587 68.4754 60.8881 69.5308 61.6326C69.5597 61.3345 70.1941 51.8722 67.2253 45.7067Z" fill="url(#paint13_linear_582_1353)"/>
<path d="M62.115 48.5389C61.1716 47.6111 60.2569 46.9101 59.3212 46.049C59.072 50.0719 58.0771 56.6423 54.5273 62.8834C55.7117 62.3994 56.8915 61.7404 58.0379 60.8742C59.5401 57.8704 61.3088 53.1741 62.115 48.5389Z" fill="url(#paint14_linear_582_1353)"/>
<path d="M65.0632 58.5008C65.2725 56.202 65.417 50.6876 64.5915 48.1484C64.2253 48.577 63.6285 49.2625 63.3337 49.6621C63.5442 51.0608 63.0485 55.175 62.6261 57.573C63.2943 57.8172 64.1593 58.0613 65.0632 58.5008Z" fill="url(#paint15_linear_582_1353)"/>
<path d="M43.3098 51.0534C43.3098 52.6879 42.2432 54.0127 40.9278 54.0127C39.6122 54.0127 38.5457 52.6879 38.5457 51.0534C38.5457 49.4192 39.6122 48.0945 40.9278 48.0945C42.2432 48.0945 43.3098 49.4192 43.3098 51.0534Z" fill="white"/>
<path d="M43.1323 50.8329C43.1323 52.467 42.0655 53.7917 40.7497 53.7917C39.4342 53.7917 38.3677 52.467 38.3677 50.8329C38.3677 49.1986 39.4342 47.8737 40.7497 47.8737C42.0655 47.8737 43.1323 49.1986 43.1323 50.8329Z" fill="url(#paint16_linear_582_1353)"/>
<path d="M41.9736 50.9756C41.9736 51.7859 41.4453 52.4425 40.7931 52.4425C40.141 52.4425 39.6123 51.786 39.6123 50.9756C39.6123 50.1658 40.1409 49.509 40.7931 49.509C41.4452 49.509 41.9736 50.1656 41.9736 50.9756Z" fill="black"/>
<path d="M40.7446 50.4603C40.7446 50.7387 40.5841 50.9652 40.3861 50.9652C40.1881 50.9652 40.0278 50.7387 40.0278 50.4603C40.0278 50.1818 40.1881 49.9557 40.3861 49.9557C40.584 49.9557 40.7446 50.1818 40.7446 50.4603Z" fill="white"/>
<path opacity="0.45" d="M59.3212 46.049C59.072 50.0719 58.0771 56.6423 54.5273 62.8834C54.5273 62.8834 60.4511 54.7766 60.7885 47.3324C60.3005 46.9113 59.8138 46.5022 59.3212 46.049Z" fill="url(#paint17_linear_582_1353)"/>
<path opacity="0.45" d="M51.9939 60.9184C55.9641 53.1053 55.5311 45.8436 55.3536 43.3353C54.7818 43.0608 54.2073 42.8289 53.6336 42.6361C54.7063 46.4072 54.839 52.57 51.9463 60.9936C51.9623 60.9684 51.9799 60.9458 51.9939 60.9184Z" fill="url(#paint18_linear_582_1353)"/>
<path opacity="0.45" d="M62.6261 57.573C62.947 57.6903 63.3139 57.8081 63.708 57.9468C64.2284 54.0626 63.5175 50.5365 63.3496 49.7871C63.5161 51.2912 63.0366 55.2423 62.6261 57.573Z" fill="url(#paint19_linear_582_1353)"/>
<path opacity="0.45" d="M66.6357 59.7217C66.9019 59.9035 67.1923 60.0919 67.4988 60.2892C69.0452 51.3681 65.5349 47.1229 65.5349 47.1229C66.2466 48.5509 67.5687 53.7299 66.6357 59.7217Z" fill="url(#paint20_linear_582_1353)"/>
<path opacity="0.45" d="M49.1568 41.2704C48.4843 41.2548 47.8252 41.2816 47.1862 41.3467C48.144 44.0702 50.4784 53.0558 47.5912 63.9541C51.3574 52.6777 49.6716 43.3865 49.1568 41.2704Z" fill="url(#paint21_linear_582_1353)"/>
<path d="M69.532 61.6197C69.5362 61.6257 69.5402 61.631 69.5445 61.637C69.5437 61.592 69.5415 61.5474 69.5404 61.5024C69.5367 61.5588 69.5339 61.5982 69.532 61.6197Z" fill="url(#paint22_linear_582_1353)"/>
<path d="M32.3293 41.0705C33.6037 41.0705 34.6368 39.7871 34.6368 38.2039C34.6368 36.6208 33.6037 35.3374 32.3293 35.3374C31.0548 35.3374 30.0217 36.6208 30.0217 38.2039C30.0217 39.7871 31.0548 41.0705 32.3293 41.0705Z" fill="url(#paint23_linear_582_1353)"/>
<path d="M28.5553 46.3529C29.4671 46.3529 30.2063 45.4346 30.2063 44.3019C30.2063 43.1692 29.4671 42.251 28.5553 42.251C27.6435 42.251 26.9043 43.1692 26.9043 44.3019C26.9043 45.4346 27.6435 46.3529 28.5553 46.3529Z" fill="url(#paint24_linear_582_1353)"/>
<path d="M32.3291 49.2972C32.3291 50.0254 31.854 50.6158 31.2678 50.6158C30.6816 50.6158 30.2063 50.0254 30.2063 49.2972C30.2063 48.569 30.6816 47.9786 31.2678 47.9786C31.854 47.9786 32.3291 48.569 32.3291 49.2972Z" fill="url(#paint25_linear_582_1353)"/>
<defs>
<linearGradient id="paint0_linear_582_1353" x1="62.3287" y1="56.5913" x2="31.8183" y2="54.4018" gradientUnits="userSpaceOnUse">
<stop offset="0.2242" stop-color="#450FA2"/>
<stop offset="0.6364" stop-color="#0006C0"/>
<stop offset="0.8061" stop-color="#0071BC"/>
</linearGradient>
<linearGradient id="paint1_linear_582_1353" x1="62.4391" y1="55.0556" x2="31.9284" y2="52.8661" gradientUnits="userSpaceOnUse">
<stop offset="0.2242" stop-color="#0B0078"/>
<stop offset="0.6364" stop-color="#0006C0"/>
<stop offset="0.8061" stop-color="#0071BC"/>
</linearGradient>
<linearGradient id="paint2_linear_582_1353" x1="62.4909" y1="54.3335" x2="31.9809" y2="52.144" gradientUnits="userSpaceOnUse">
<stop offset="0.2242" stop-color="#0B0078"/>
<stop offset="0.6364" stop-color="#0006C0"/>
<stop offset="0.8061" stop-color="#0071BC"/>
</linearGradient>
<linearGradient id="paint3_linear_582_1353" x1="62.8955" y1="48.6356" x2="32.5495" y2="46.4285" gradientUnits="userSpaceOnUse">
<stop offset="0.2242" stop-color="#0B0078"/>
<stop offset="0.6364" stop-color="#0006C0"/>
<stop offset="0.8061" stop-color="#0071BC"/>
</linearGradient>
<linearGradient id="paint4_linear_582_1353" x1="62.5798" y1="53.0933" x2="32.0696" y2="50.9038" gradientUnits="userSpaceOnUse">
<stop offset="0.2242" stop-color="#0B0078"/>
<stop offset="0.6364" stop-color="#0006C0"/>
<stop offset="0.8061" stop-color="#0071BC"/>
</linearGradient>
<linearGradient id="paint5_linear_582_1353" x1="62.5202" y1="53.9225" x2="32.0095" y2="51.733" gradientUnits="userSpaceOnUse">
<stop offset="0.2242" stop-color="#0B0078"/>
<stop offset="0.6364" stop-color="#0006C0"/>
<stop offset="0.8061" stop-color="#0071BC"/>
</linearGradient>
<linearGradient id="paint6_linear_582_1353" x1="62.8999" y1="48.6287" x2="32.3889" y2="46.4391" gradientUnits="userSpaceOnUse">
<stop offset="0.2242" stop-color="#0B0078"/>
<stop offset="0.6364" stop-color="#0006C0"/>
<stop offset="0.8061" stop-color="#0071BC"/>
</linearGradient>
<linearGradient id="paint7_linear_582_1353" x1="62.5439" y1="53.5951" x2="32.0344" y2="51.4056" gradientUnits="userSpaceOnUse">
<stop offset="0.2242" stop-color="#0B0078"/>
<stop offset="0.6364" stop-color="#0006C0"/>
<stop offset="0.8061" stop-color="#0071BC"/>
</linearGradient>
<linearGradient id="paint8_linear_582_1353" x1="47.2217" y1="49.2499" x2="36.7363" y2="51.6893" gradientUnits="userSpaceOnUse">
<stop stop-color="#0B0078"/>
<stop offset="0.3455" stop-color="#0006C0"/>
<stop offset="0.9515" stop-color="#0CB7FF"/>
</linearGradient>
<linearGradient id="paint9_linear_582_1353" x1="33.0002" y1="55.1558" x2="77.4404" y2="52.3015" gradientUnits="userSpaceOnUse">
<stop stop-color="#812500"/>
<stop offset="0.1576" stop-color="#B30056"/>
<stop offset="0.297" stop-color="#FF5945"/>
<stop offset="0.4061" stop-color="#FFBD2D"/>
<stop offset="0.5333" stop-color="#F5FF43"/>
<stop offset="0.6182" stop-color="#82E82D"/>
<stop offset="0.7333" stop-color="#00C79F"/>
<stop offset="0.8303" stop-color="#00CCEC"/>
<stop offset="0.9576" stop-color="#69DBFF"/>
</linearGradient>
<linearGradient id="paint10_linear_582_1353" x1="32.9386" y1="54.1969" x2="77.3797" y2="51.3425" gradientUnits="userSpaceOnUse">
<stop stop-color="#812500"/>
<stop offset="0.1576" stop-color="#B30056"/>
<stop offset="0.297" stop-color="#FF5945"/>
<stop offset="0.4061" stop-color="#FFBD2D"/>
<stop offset="0.5333" stop-color="#F5FF43"/>
<stop offset="0.6182" stop-color="#82E82D"/>
<stop offset="0.7333" stop-color="#00C79F"/>
<stop offset="0.8303" stop-color="#00CCEC"/>
<stop offset="0.9576" stop-color="#69DBFF"/>
</linearGradient>
<linearGradient id="paint11_linear_582_1353" x1="32.9442" y1="54.2909" x2="77.3848" y2="51.4366" gradientUnits="userSpaceOnUse">
<stop stop-color="#812500"/>
<stop offset="0.1576" stop-color="#B30056"/>
<stop offset="0.297" stop-color="#FF5945"/>
<stop offset="0.4061" stop-color="#FFBD2D"/>
<stop offset="0.5333" stop-color="#F5FF43"/>
<stop offset="0.6182" stop-color="#82E82D"/>
<stop offset="0.7333" stop-color="#00C79F"/>
<stop offset="0.8303" stop-color="#00CCEC"/>
<stop offset="0.9576" stop-color="#69DBFF"/>
</linearGradient>
<linearGradient id="paint12_linear_582_1353" x1="45.7205" y1="56.2595" x2="41.9406" y2="59.1917" gradientUnits="userSpaceOnUse">
<stop stop-color="white"/>
<stop offset="0.1109" stop-color="#F7F7F7"/>
<stop offset="0.2793" stop-color="#E2E2E2"/>
<stop offset="0.4842" stop-color="#C0C0C0"/>
<stop offset="0.7178" stop-color="#909090"/>
<stop offset="0.9727" stop-color="#545454"/>
<stop offset="1" stop-color="#4D4D4D"/>
</linearGradient>
<linearGradient id="paint13_linear_582_1353" x1="33.1287" y1="57.1634" x2="77.5694" y2="54.309" gradientUnits="userSpaceOnUse">
<stop stop-color="#812500"/>
<stop offset="0.1576" stop-color="#B30056"/>
<stop offset="0.297" stop-color="#FF5945"/>
<stop offset="0.4061" stop-color="#FFBD2D"/>
<stop offset="0.5333" stop-color="#F5FF43"/>
<stop offset="0.6182" stop-color="#82E82D"/>
<stop offset="0.7333" stop-color="#00C79F"/>
<stop offset="0.8303" stop-color="#00CCEC"/>
<stop offset="0.9576" stop-color="#69DBFF"/>
</linearGradient>
<linearGradient id="paint14_linear_582_1353" x1="33.1076" y1="56.8268" x2="77.5479" y2="53.9725" gradientUnits="userSpaceOnUse">
<stop stop-color="#812500"/>
<stop offset="0.1576" stop-color="#B30056"/>
<stop offset="0.297" stop-color="#FF5945"/>
<stop offset="0.4061" stop-color="#FFBD2D"/>
<stop offset="0.5333" stop-color="#F5FF43"/>
<stop offset="0.6182" stop-color="#82E82D"/>
<stop offset="0.7333" stop-color="#00C79F"/>
<stop offset="0.8303" stop-color="#00CCEC"/>
<stop offset="0.9576" stop-color="#69DBFF"/>
</linearGradient>
<linearGradient id="paint15_linear_582_1353" x1="33.0848" y1="56.4708" x2="77.525" y2="53.6165" gradientUnits="userSpaceOnUse">
<stop stop-color="#812500"/>
<stop offset="0.1576" stop-color="#B30056"/>
<stop offset="0.297" stop-color="#FF5945"/>
<stop offset="0.4061" stop-color="#FFBD2D"/>
<stop offset="0.5333" stop-color="#F5FF43"/>
<stop offset="0.6182" stop-color="#82E82D"/>
<stop offset="0.7333" stop-color="#00C79F"/>
<stop offset="0.8303" stop-color="#00CCEC"/>
<stop offset="0.9576" stop-color="#69DBFF"/>
</linearGradient>
<linearGradient id="paint16_linear_582_1353" x1="38.3676" y1="50.8327" x2="43.1322" y2="50.8327" gradientUnits="userSpaceOnUse">
<stop stop-color="#B3B3B3"/>
<stop offset="0.9212" stop-color="white"/>
</linearGradient>
<linearGradient id="paint17_linear_582_1353" x1="61.6592" y1="48.7981" x2="53.8495" y2="54.8562" gradientUnits="userSpaceOnUse">
<stop stop-color="white"/>
<stop offset="0.1109" stop-color="#F7F7F7"/>
<stop offset="0.2793" stop-color="#E2E2E2"/>
<stop offset="0.4842" stop-color="#C0C0C0"/>
<stop offset="0.7178" stop-color="#909090"/>
<stop offset="0.9727" stop-color="#545454"/>
<stop offset="1" stop-color="#4D4D4D"/>
</linearGradient>
<linearGradient id="paint18_linear_582_1353" x1="57.401" y1="46.2949" x2="50.111" y2="51.95" gradientUnits="userSpaceOnUse">
<stop stop-color="white"/>
<stop offset="0.1109" stop-color="#F7F7F7"/>
<stop offset="0.2793" stop-color="#E2E2E2"/>
<stop offset="0.4842" stop-color="#C0C0C0"/>
<stop offset="0.7178" stop-color="#909090"/>
<stop offset="0.9727" stop-color="#545454"/>
<stop offset="1" stop-color="#4D4D4D"/>
</linearGradient>
<linearGradient id="paint19_linear_582_1353" x1="65.0258" y1="52.0747" x2="62.1434" y2="54.3106" gradientUnits="userSpaceOnUse">
<stop stop-color="white"/>
<stop offset="0.1109" stop-color="#F7F7F7"/>
<stop offset="0.2793" stop-color="#E2E2E2"/>
<stop offset="0.4842" stop-color="#C0C0C0"/>
<stop offset="0.7178" stop-color="#909090"/>
<stop offset="0.9727" stop-color="#545454"/>
<stop offset="1" stop-color="#4D4D4D"/>
</linearGradient>
<linearGradient id="paint20_linear_582_1353" x1="66.4078" y1="46.8142" x2="68.0388" y2="61.7436" gradientUnits="userSpaceOnUse">
<stop stop-color="white"/>
<stop offset="0.1109" stop-color="#F7F7F7"/>
<stop offset="0.2793" stop-color="#E2E2E2"/>
<stop offset="0.4842" stop-color="#C0C0C0"/>
<stop offset="0.7178" stop-color="#909090"/>
<stop offset="0.9727" stop-color="#545454"/>
<stop offset="1" stop-color="#4D4D4D"/>
</linearGradient>
<linearGradient id="paint21_linear_582_1353" x1="49.8767" y1="32.936" x2="46.8184" y2="53.6013" gradientUnits="userSpaceOnUse">
<stop stop-color="white"/>
<stop offset="0.1109" stop-color="#F7F7F7"/>
<stop offset="0.2793" stop-color="#E2E2E2"/>
<stop offset="0.4842" stop-color="#C0C0C0"/>
<stop offset="0.7178" stop-color="#909090"/>
<stop offset="0.9727" stop-color="#545454"/>
<stop offset="1" stop-color="#4D4D4D"/>
</linearGradient>
<linearGradient id="paint22_linear_582_1353" x1="69.5267" y1="61.5697" x2="69.5448" y2="61.5697" gradientUnits="userSpaceOnUse">
<stop offset="0.2242" stop-color="#0B0078"/>
<stop offset="0.6364" stop-color="#0006C0"/>
<stop offset="0.8061" stop-color="#0071BC"/>
</linearGradient>
<linearGradient id="paint23_linear_582_1353" x1="46.8381" y1="18.5859" x2="8.94298" y2="51.7897" gradientUnits="userSpaceOnUse">
<stop stop-color="#812500"/>
<stop offset="0.1576" stop-color="#B30056"/>
<stop offset="0.297" stop-color="#FF5945"/>
<stop offset="0.4061" stop-color="#FFBD2D"/>
<stop offset="0.5333" stop-color="#F5FF43"/>
<stop offset="0.6182" stop-color="#82E82D"/>
<stop offset="0.7333" stop-color="#00C79F"/>
<stop offset="0.8303" stop-color="#00CCEC"/>
<stop offset="0.9576" stop-color="#69DBFF"/>
</linearGradient>
<linearGradient id="paint24_linear_582_1353" x1="50.7421" y1="14.3024" x2="12.847" y2="47.506" gradientUnits="userSpaceOnUse">
<stop offset="0.0424" stop-color="#69DBFF"/>
<stop offset="0.1697" stop-color="#00CCEC"/>
<stop offset="0.2667" stop-color="#00C79F"/>
<stop offset="0.3818" stop-color="#82E82D"/>
<stop offset="0.4667" stop-color="#F5FF43"/>
<stop offset="0.5939" stop-color="#FFBD2D"/>
<stop offset="0.703" stop-color="#FF5945"/>
<stop offset="0.8424" stop-color="#B30056"/>
<stop offset="1" stop-color="#812500"/>
</linearGradient>
<linearGradient id="paint25_linear_582_1353" x1="51.9828" y1="21.2875" x2="14.0878" y2="54.4911" gradientUnits="userSpaceOnUse">
<stop offset="0.0424" stop-color="#69DBFF"/>
<stop offset="0.1697" stop-color="#00CCEC"/>
<stop offset="0.2667" stop-color="#00C79F"/>
<stop offset="0.3818" stop-color="#82E82D"/>
<stop offset="0.4667" stop-color="#F5FF43"/>
<stop offset="0.5939" stop-color="#FFBD2D"/>
<stop offset="0.703" stop-color="#FF5945"/>
<stop offset="0.8424" stop-color="#B30056"/>
<stop offset="1" stop-color="#812500"/>
</linearGradient>
</defs>
</svg>
