<svg width="74" height="54" viewBox="0 0 74 54" fill="none" xmlns="http://www.w3.org/2000/svg">
<path d="M57.1818 48.9375C59.9736 48.9375 62.2273 46.6762 62.2273 43.875C62.2273 41.0738 59.9736 38.8125 57.1818 38.8125C54.39 38.8125 52.1364 41.0738 52.1364 43.875C52.1364 46.6762 54.39 48.9375 57.1818 48.9375ZM62.2273 18.5625H53.8182V27H68.82L62.2273 18.5625ZM16.8182 48.9375C19.61 48.9375 21.8636 46.6762 21.8636 43.875C21.8636 41.0738 19.61 38.8125 16.8182 38.8125C14.0264 38.8125 11.7727 41.0738 11.7727 43.875C11.7727 46.6762 14.0264 48.9375 16.8182 48.9375ZM63.9091 13.5L74 27V43.875H67.2727C67.2727 49.4775 62.7655 54 57.1818 54C51.5982 54 47.0909 49.4775 47.0909 43.875H26.9091C26.9091 49.4775 22.4018 54 16.8182 54C11.2345 54 6.72727 49.4775 6.72727 43.875H0V6.75C0 3.00375 2.99364 0 6.72727 0H53.8182V13.5H63.9091ZM6.72727 6.75V37.125H9.28364C11.1336 35.0662 13.8245 33.75 16.8182 33.75C19.8118 33.75 22.5027 35.0662 24.3527 37.125H47.0909V6.75H6.72727Z" fill="#52867E"/>
</svg>
